<svg width="75" height="32" viewBox="0 0 75 32" fill="none" xmlns="http://www.w3.org/2000/svg">
<path d="M0.743774 16.2371C0.743774 14.7722 1.06972 13.4638 1.7216 12.3118C2.38766 11.1455 3.28755 10.2424 4.42126 9.60243C5.56914 8.9482 6.85166 8.62109 8.2688 8.62109C9.92686 8.62109 11.3794 9.04776 12.6265 9.90109C13.7268 10.654 14.5348 11.6615 15.0504 12.9237C15.1534 13.1758 14.9608 13.4424 14.6884 13.4424H12.0708C11.9168 13.4424 11.7779 13.3531 11.7035 13.2182C11.3729 12.6181 10.9294 12.1596 10.3733 11.8424C9.76389 11.4869 9.05532 11.3091 8.24754 11.3091C7.38309 11.3091 6.61074 11.5153 5.93052 11.9278C5.26446 12.326 4.74012 12.8949 4.35749 13.6344C3.98903 14.374 3.8048 15.2415 3.8048 16.2371C3.8048 17.2184 3.98903 18.086 4.35749 18.8398C4.74012 19.5793 5.26446 20.1553 5.93052 20.5678C6.61074 20.966 7.38309 21.1651 8.24754 21.1651C9.05532 21.1651 9.76389 20.9873 10.3733 20.6318C10.9295 20.3019 11.373 19.8362 11.7037 19.2347C11.7779 19.0998 11.9168 19.0104 12.0708 19.0104H14.6901C14.962 19.0104 15.1545 19.2762 15.0527 19.5283C14.5371 20.8042 13.7284 21.8191 12.6265 22.5731C11.3936 23.4122 9.94103 23.8318 8.2688 23.8318C6.85166 23.8318 5.56914 23.5118 4.42126 22.8718C3.28755 22.2175 2.38766 21.3144 1.7216 20.1624C1.06972 19.0104 0.743774 17.702 0.743774 16.2371ZM20.759 20.9358C20.759 21.1567 20.9381 21.3358 21.159 21.3358H25.2482C25.4691 21.3358 25.6482 21.5148 25.6482 21.7358V23.3038C25.6482 23.5247 25.4691 23.7038 25.2482 23.7038H18.183C17.9621 23.7038 17.783 23.5247 17.783 23.3038V9.21309C17.783 8.99218 17.9621 8.81309 18.183 8.81309H20.359C20.5799 8.81309 20.759 8.99218 20.759 9.21309V20.9358Z" fill="#257E64"/>
<path d="M34.9257 23.8529C33.5369 23.8529 32.2615 23.5258 31.0994 22.8716C29.9374 22.2174 29.0162 21.3143 28.336 20.1623C27.6558 18.9961 27.3157 17.6805 27.3157 16.2156C27.3157 14.7649 27.6558 13.4636 28.336 12.3116C29.0162 11.1454 29.9374 10.2352 31.0994 9.58094C32.2615 8.92672 33.5369 8.59961 34.9257 8.59961C36.3287 8.59961 37.6041 8.92672 38.752 9.58094C39.9141 10.2352 40.8281 11.1454 41.4942 12.3116C42.1744 13.4636 42.5145 14.7649 42.5145 16.2156C42.5145 17.6805 42.1744 18.9961 41.4942 20.1623C40.8281 21.3143 39.9141 22.2174 38.752 22.8716C37.59 23.5258 36.3145 23.8529 34.9257 23.8529ZM34.9257 21.1863C35.8185 21.1863 36.605 20.9872 37.2853 20.5889C37.9655 20.1765 38.4969 19.5934 38.8796 18.8396C39.2622 18.0858 39.4535 17.2112 39.4535 16.2156C39.4535 15.2201 39.2622 14.3525 38.8796 13.6129C38.4969 12.8592 37.9655 12.2832 37.2853 11.8849C36.605 11.4867 35.8185 11.2876 34.9257 11.2876C34.0329 11.2876 33.2393 11.4867 32.5449 11.8849C31.8647 12.2832 31.3333 12.8592 30.9506 13.6129C30.568 14.3525 30.3767 15.2201 30.3767 16.2156C30.3767 17.2112 30.568 18.0858 30.9506 18.8396C31.3333 19.5934 31.8647 20.1765 32.5449 20.5889C33.2393 20.9872 34.0329 21.1863 34.9257 21.1863Z" fill="#257E64"/>
<path d="M44.4391 16.2371C44.4391 14.7722 44.765 13.4638 45.4169 12.3118C46.083 11.1455 46.9829 10.2424 48.1166 9.60243C49.2645 8.9482 50.547 8.62109 51.9641 8.62109C53.6222 8.62109 55.0747 9.04776 56.3218 9.90109C57.4221 10.654 58.2301 11.6615 58.7457 12.9237C58.8487 13.1758 58.6561 13.4424 58.3838 13.4424H55.7661C55.6121 13.4424 55.4732 13.3531 55.3989 13.2182C55.0682 12.6181 54.6247 12.1596 54.0686 11.8424C53.4592 11.4869 52.7506 11.3091 51.9429 11.3091C51.0784 11.3091 50.3061 11.5153 49.6258 11.9278C48.9598 12.326 48.4354 12.8949 48.0528 13.6344C47.6843 14.374 47.5001 15.2415 47.5001 16.2371C47.5001 17.2184 47.6843 18.086 48.0528 18.8398C48.4354 19.5793 48.9598 20.1553 49.6258 20.5678C50.3061 20.966 51.0784 21.1651 51.9429 21.1651C52.7506 21.1651 53.4592 20.9873 54.0686 20.6318C54.6248 20.3019 55.0683 19.8362 55.399 19.2347C55.4732 19.0998 55.6121 19.0104 55.7661 19.0104H58.3854C58.6573 19.0104 58.8498 19.2762 58.748 19.5283C58.2325 20.8042 57.4237 21.8191 56.3218 22.5731C55.0889 23.4122 53.6363 23.8318 51.9641 23.8318C50.547 23.8318 49.2645 23.5118 48.1166 22.8718C46.9829 22.2175 46.083 21.3144 45.4169 20.1624C44.765 19.0104 44.4391 17.702 44.4391 16.2371ZM70.044 23.7038C69.9236 23.7038 69.8097 23.6496 69.7337 23.5562L65.1647 17.9418C64.9271 17.6499 64.4545 17.8179 64.4545 18.1943V23.3038C64.4545 23.5247 64.2754 23.7038 64.0545 23.7038H61.8785C61.6575 23.7038 61.4785 23.5247 61.4785 23.3038V9.21309C61.4785 8.99218 61.6575 8.81309 61.8785 8.81309H64.0545C64.2754 8.81309 64.4545 8.99218 64.4545 9.21309V14.3596C64.4545 14.7366 64.9284 14.9043 65.1655 14.6111L69.7337 8.96159C69.8096 8.86767 69.924 8.81309 70.0447 8.81309H72.5948C72.9335 8.81309 73.1189 9.20775 72.9027 9.46845L67.537 15.9378C67.4137 16.0864 67.4143 16.302 67.5383 16.45L73.0659 23.0469C73.284 23.3072 73.0989 23.7038 72.7593 23.7038H70.044Z" fill="#257E64"/>
<path fill-rule="evenodd" clip-rule="evenodd" d="M28.9697 2.36914C28.6774 2.36914 28.4856 2.67194 28.6309 2.92556C28.6406 2.94239 28.6503 2.95919 28.66 2.97596C29.3403 4.12796 30.2614 5.03107 31.4235 5.68529C32.5855 6.33951 33.861 6.66662 35.2498 6.66662C36.6386 6.66662 37.914 6.33951 39.076 5.68529C40.2381 5.03107 41.1522 4.12796 41.8182 2.97596C41.828 2.95915 41.8377 2.94231 41.8474 2.92544C41.9926 2.67182 41.8009 2.36914 41.5087 2.36914H38.9552C38.8303 2.36914 38.7135 2.42825 38.6333 2.52398C38.341 2.87306 37.9996 3.16594 37.6093 3.40262C36.9291 3.80084 36.1426 3.99996 35.2498 3.99996C34.357 3.99996 33.5634 3.80084 32.869 3.40262C32.4786 3.16594 32.1373 2.87306 31.8449 2.52398C31.7647 2.42825 31.6479 2.36914 31.5231 2.36914H28.9697Z" fill="#257E64"/>
<path fill-rule="evenodd" clip-rule="evenodd" d="M41.5087 30.3717C41.8009 30.3717 41.9927 30.069 41.8474 29.8154C41.8377 29.7985 41.828 29.7817 41.8182 29.7649C41.138 28.6129 40.2168 27.7098 39.0548 27.0556C37.8927 26.4013 36.6173 26.0742 35.2285 26.0742C33.8397 26.0742 32.5643 26.4013 31.4022 27.0556C30.2402 27.7098 29.3261 28.6129 28.66 29.7649C28.6502 29.7817 28.6405 29.7985 28.6308 29.8154C28.4855 30.069 28.6773 30.3717 28.9695 30.3717H31.5231C31.6479 30.3717 31.7647 30.3126 31.8449 30.2169C32.1373 29.8678 32.4786 29.5749 32.869 29.3382C33.5492 28.94 34.3357 28.7409 35.2285 28.7409C36.1213 28.7409 36.9149 28.94 37.6093 29.3382C37.9996 29.5749 38.3409 29.8678 38.6333 30.2169C38.7135 30.3126 38.8303 30.3717 38.9551 30.3717H41.5087Z" fill="#257E64"/>
</svg>
