<svg width="30" height="30" viewBox="0 0 30 30" fill="none" xmlns="http://www.w3.org/2000/svg">
<path fill-rule="evenodd" clip-rule="evenodd" d="M9.02555 7.5C7.94555 7.5 6.93305 7.9175 6.17555 8.67625C4.60305 10.2512 4.60305 12.815 6.1768 14.3925L15.0005 23.2313L23.8255 14.3925C25.3993 12.815 25.3993 10.2512 23.8255 8.67625C22.3105 7.1575 19.6405 7.16 18.1255 8.67625L15.8855 10.92C15.4155 11.3913 14.5855 11.3913 14.1155 10.92L11.8755 8.675C11.118 7.9175 10.1068 7.5 9.02555 7.5ZM15.0005 26.25C14.6693 26.25 14.3505 26.1187 14.1168 25.8825L4.4068 16.1575C1.8618 13.6075 1.8618 9.45875 4.4068 6.90875C5.6368 5.67875 7.2768 5 9.02555 5C10.7743 5 12.4155 5.67875 13.6443 6.90875L15.0005 8.2675L16.3568 6.91C17.5868 5.67875 19.2268 5 20.9768 5C22.7243 5 24.3655 5.67875 25.5943 6.90875C28.1405 9.45875 28.1405 13.6075 25.5955 16.1575L15.8855 25.8838C15.6505 26.1188 15.333 26.25 15.0005 26.25Z" fill="#000908"/>
<mask id="mask0_541_3241" style="mask-type:alpha" maskUnits="userSpaceOnUse" x="2" y="5" width="26" height="22">
<path fill-rule="evenodd" clip-rule="evenodd" d="M9.02555 7.5C7.94555 7.5 6.93305 7.9175 6.17555 8.67625C4.60305 10.2512 4.60305 12.815 6.1768 14.3925L15.0005 23.2313L23.8255 14.3925C25.3993 12.815 25.3993 10.2512 23.8255 8.67625C22.3105 7.1575 19.6405 7.16 18.1255 8.67625L15.8855 10.92C15.4155 11.3913 14.5855 11.3913 14.1155 10.92L11.8755 8.675C11.118 7.9175 10.1068 7.5 9.02555 7.5ZM15.0005 26.25C14.6693 26.25 14.3505 26.1187 14.1168 25.8825L4.4068 16.1575C1.8618 13.6075 1.8618 9.45875 4.4068 6.90875C5.6368 5.67875 7.2768 5 9.02555 5C10.7743 5 12.4155 5.67875 13.6443 6.90875L15.0005 8.2675L16.3568 6.91C17.5868 5.67875 19.2268 5 20.9768 5C22.7243 5 24.3655 5.67875 25.5943 6.90875C28.1405 9.45875 28.1405 13.6075 25.5955 16.1575L15.8855 25.8838C15.6505 26.1188 15.333 26.25 15.0005 26.25Z" fill="white"/>
</mask>
<g mask="url(#mask0_541_3241)">
<rect width="30" height="30" fill="#000908"/>
</g>
</svg>
