<svg width="30" height="30" viewBox="0 0 30 30" fill="none" xmlns="http://www.w3.org/2000/svg">
<path fill-rule="evenodd" clip-rule="evenodd" d="M20.4775 17.5H10.955L8.90875 10H24.2275L20.4775 17.5ZM26.3538 8.685C25.895 7.9425 25.1 7.5 24.2275 7.5H8.2275L7.45625 4.67125C7.3075 4.1275 6.81375 3.75 6.25 3.75H3.75C3.05875 3.75 2.5 4.31 2.5 5C2.5 5.69 3.05875 6.25 3.75 6.25H5.295L8.79375 19.0787C8.9425 19.6225 9.43625 20 10 20H21.25C21.7237 20 22.1562 19.7325 22.3688 19.3087L26.4637 11.1175C26.855 10.3363 26.8125 9.4275 26.3538 8.685ZM9.37525 22.5C8.34025 22.5 7.50025 23.3388 7.50025 24.375C7.50025 25.4112 8.34025 26.25 9.37525 26.25C10.4102 26.25 11.2502 25.4112 11.2502 24.375C11.2502 23.3388 10.4102 22.5 9.37525 22.5ZM20.0002 24.375C20.0002 23.3388 20.8403 22.5 21.8752 22.5C22.9102 22.5 23.7502 23.3388 23.7502 24.375C23.7502 25.4112 22.9102 26.25 21.8752 26.25C20.8403 26.25 20.0002 25.4112 20.0002 24.375Z" fill="#000908"/>
<mask id="mask0_541_3213" style="mask-type:alpha" maskUnits="userSpaceOnUse" x="2" y="3" width="25" height="24">
<path fill-rule="evenodd" clip-rule="evenodd" d="M20.4775 17.5H10.955L8.90875 10H24.2275L20.4775 17.5ZM26.3538 8.685C25.895 7.9425 25.1 7.5 24.2275 7.5H8.2275L7.45625 4.67125C7.3075 4.1275 6.81375 3.75 6.25 3.75H3.75C3.05875 3.75 2.5 4.31 2.5 5C2.5 5.69 3.05875 6.25 3.75 6.25H5.295L8.79375 19.0787C8.9425 19.6225 9.43625 20 10 20H21.25C21.7237 20 22.1562 19.7325 22.3688 19.3087L26.4637 11.1175C26.855 10.3363 26.8125 9.4275 26.3538 8.685ZM9.37525 22.5C8.34025 22.5 7.50025 23.3388 7.50025 24.375C7.50025 25.4112 8.34025 26.25 9.37525 26.25C10.4102 26.25 11.2502 25.4112 11.2502 24.375C11.2502 23.3388 10.4102 22.5 9.37525 22.5ZM20.0002 24.375C20.0002 23.3388 20.8403 22.5 21.8752 22.5C22.9102 22.5 23.7502 23.3388 23.7502 24.375C23.7502 25.4112 22.9102 26.25 21.8752 26.25C20.8403 26.25 20.0002 25.4112 20.0002 24.375Z" fill="white"/>
</mask>
<g mask="url(#mask0_541_3213)">
<rect width="30" height="30" fill="#000908"/>
</g>
</svg>
