<svg width="18" height="18" viewBox="0 0 18 18" fill="none" xmlns="http://www.w3.org/2000/svg">
<path d="M7.88241 1.99839C8.47863 1.33239 9.52137 1.33238 10.1176 1.99839L10.8555 2.82271C11.1594 3.16214 11.6011 3.34508 12.0559 3.31993L13.1606 3.25886C14.0532 3.20952 14.7905 3.94684 14.7411 4.83937L14.6801 5.94406C14.6549 6.39894 14.8379 6.84059 15.1773 7.14446L16.0016 7.88241C16.6676 8.47863 16.6676 9.52137 16.0016 10.1176L15.1773 10.8555C14.8379 11.1594 14.6549 11.6011 14.6801 12.0559L14.7411 13.1606C14.7905 14.0532 14.0532 14.7905 13.1606 14.7411L12.0559 14.6801C11.6011 14.6549 11.1594 14.8379 10.8555 15.1773L10.1176 16.0016C9.52137 16.6676 8.47863 16.6676 7.88241 16.0016L7.14446 15.1773C6.84059 14.8379 6.39894 14.6549 5.94407 14.6801L4.83937 14.7411C3.94684 14.7905 3.20952 14.0532 3.25886 13.1606L3.31993 12.0559C3.34508 11.6011 3.16214 11.1594 2.82271 10.8555L1.99839 10.1176C1.33239 9.52137 1.33238 8.47863 1.99839 7.88241L2.82271 7.14446C3.16214 6.84059 3.34508 6.39894 3.31993 5.94407L3.25886 4.83937C3.20952 3.94684 3.94684 3.20952 4.83937 3.25886L5.94406 3.31993C6.39894 3.34508 6.84059 3.16214 7.14446 2.82271L7.88241 1.99839Z" stroke="#015850" stroke-width="1.5"/>
<circle cx="10.875" cy="10.875" r="1.125" fill="#015850"/>
<circle cx="7.125" cy="7.125" r="1.125" fill="#015850"/>
<path d="M11.25 6.75L6.75 11.25" stroke="#015850" stroke-width="1.5" stroke-linecap="round" stroke-linejoin="round"/>
</svg>
