<svg width="343" height="140" viewBox="0 0 343 140" fill="none" xmlns="http://www.w3.org/2000/svg">
<g clip-path="url(#clip0_357_1989)">
<rect width="343" height="140" rx="8" fill="#0C0A7A"/>
<g opacity="0.9">
<path d="M83.8396 50.812C83.8396 49.996 84.0276 49.264 84.4036 48.616C84.7876 47.968 85.3036 47.464 85.9516 47.104C86.6076 46.736 87.3236 46.552 88.0996 46.552C88.9876 46.552 89.7756 46.772 90.4636 47.212C91.1596 47.644 91.6636 48.26 91.9756 49.06H90.3316C90.1156 48.62 89.8156 48.292 89.4316 48.076C89.0476 47.86 88.6036 47.752 88.0996 47.752C87.5476 47.752 87.0556 47.876 86.6236 48.124C86.1916 48.372 85.8516 48.728 85.6036 49.192C85.3636 49.656 85.2436 50.196 85.2436 50.812C85.2436 51.428 85.3636 51.968 85.6036 52.432C85.8516 52.896 86.1916 53.256 86.6236 53.512C87.0556 53.76 87.5476 53.884 88.0996 53.884C88.6036 53.884 89.0476 53.776 89.4316 53.56C89.8156 53.344 90.1156 53.016 90.3316 52.576H91.9756C91.6636 53.376 91.1596 53.992 90.4636 54.424C89.7756 54.856 88.9876 55.072 88.0996 55.072C87.3156 55.072 86.5996 54.892 85.9516 54.532C85.3036 54.164 84.7876 53.656 84.4036 53.008C84.0276 52.36 83.8396 51.628 83.8396 50.812ZM99.7569 51.532C99.7569 51.78 99.7409 52.004 99.7089 52.204H94.6569C94.6969 52.732 94.8929 53.156 95.2449 53.476C95.5969 53.796 96.0289 53.956 96.5409 53.956C97.2769 53.956 97.7969 53.648 98.1009 53.032H99.5769C99.3769 53.64 99.0129 54.14 98.4849 54.532C97.9649 54.916 97.3169 55.108 96.5409 55.108C95.9089 55.108 95.3409 54.968 94.8369 54.688C94.3409 54.4 93.9489 54 93.6609 53.488C93.3809 52.968 93.2409 52.368 93.2409 51.688C93.2409 51.008 93.3769 50.412 93.6489 49.9C93.9289 49.38 94.3169 48.98 94.8129 48.7C95.3169 48.42 95.8929 48.28 96.5409 48.28C97.1649 48.28 97.7209 48.416 98.2089 48.688C98.6969 48.96 99.0769 49.344 99.3489 49.84C99.6209 50.328 99.7569 50.892 99.7569 51.532ZM98.3289 51.1C98.3209 50.596 98.1409 50.192 97.7889 49.888C97.4369 49.584 97.0009 49.432 96.4809 49.432C96.0089 49.432 95.6049 49.584 95.2689 49.888C94.9329 50.184 94.7329 50.588 94.6689 51.1H98.3289ZM102.591 46.12V55H101.223V46.12H102.591ZM110.567 51.532C110.567 51.78 110.551 52.004 110.519 52.204H105.467C105.507 52.732 105.703 53.156 106.055 53.476C106.407 53.796 106.839 53.956 107.351 53.956C108.087 53.956 108.607 53.648 108.911 53.032H110.387C110.187 53.64 109.823 54.14 109.295 54.532C108.775 54.916 108.127 55.108 107.351 55.108C106.719 55.108 106.151 54.968 105.647 54.688C105.151 54.4 104.759 54 104.471 53.488C104.191 52.968 104.051 52.368 104.051 51.688C104.051 51.008 104.187 50.412 104.459 49.9C104.739 49.38 105.127 48.98 105.623 48.7C106.127 48.42 106.703 48.28 107.351 48.28C107.975 48.28 108.531 48.416 109.019 48.688C109.507 48.96 109.887 49.344 110.159 49.84C110.431 50.328 110.567 50.892 110.567 51.532ZM109.139 51.1C109.131 50.596 108.951 50.192 108.599 49.888C108.247 49.584 107.811 49.432 107.291 49.432C106.819 49.432 106.415 49.584 106.079 49.888C105.743 50.184 105.543 50.588 105.479 51.1H109.139ZM113.401 49.372C113.633 49.052 113.949 48.792 114.349 48.592C114.757 48.384 115.209 48.28 115.705 48.28C116.289 48.28 116.817 48.42 117.289 48.7C117.761 48.98 118.133 49.38 118.405 49.9C118.677 50.412 118.813 51 118.813 51.664C118.813 52.328 118.677 52.924 118.405 53.452C118.133 53.972 117.757 54.38 117.277 54.676C116.805 54.964 116.281 55.108 115.705 55.108C115.193 55.108 114.737 55.008 114.337 54.808C113.945 54.608 113.633 54.352 113.401 54.04V55H112.033V46.12H113.401V49.372ZM117.421 51.664C117.421 51.208 117.325 50.816 117.133 50.488C116.949 50.152 116.701 49.9 116.389 49.732C116.085 49.556 115.757 49.468 115.405 49.468C115.061 49.468 114.733 49.556 114.421 49.732C114.117 49.908 113.869 50.164 113.677 50.5C113.493 50.836 113.401 51.232 113.401 51.688C113.401 52.144 113.493 52.544 113.677 52.888C113.869 53.224 114.117 53.48 114.421 53.656C114.733 53.832 115.061 53.92 115.405 53.92C115.757 53.92 116.085 53.832 116.389 53.656C116.701 53.472 116.949 53.208 117.133 52.864C117.325 52.52 117.421 52.12 117.421 51.664ZM121.654 49.348C121.854 49.012 122.118 48.752 122.446 48.568C122.782 48.376 123.178 48.28 123.634 48.28V49.696H123.286C122.75 49.696 122.342 49.832 122.062 50.104C121.79 50.376 121.654 50.848 121.654 51.52V55H120.286V48.388H121.654V49.348ZM124.556 51.664C124.556 51 124.692 50.412 124.964 49.9C125.244 49.388 125.62 48.992 126.092 48.712C126.572 48.424 127.1 48.28 127.676 48.28C128.196 48.28 128.648 48.384 129.032 48.592C129.424 48.792 129.736 49.044 129.968 49.348V48.388H131.348V55H129.968V54.016C129.736 54.328 129.42 54.588 129.02 54.796C128.62 55.004 128.164 55.108 127.652 55.108C127.084 55.108 126.564 54.964 126.092 54.676C125.62 54.38 125.244 53.972 124.964 53.452C124.692 52.924 124.556 52.328 124.556 51.664ZM129.968 51.688C129.968 51.232 129.872 50.836 129.68 50.5C129.496 50.164 129.252 49.908 128.948 49.732C128.644 49.556 128.316 49.468 127.964 49.468C127.612 49.468 127.284 49.556 126.98 49.732C126.676 49.9 126.428 50.152 126.236 50.488C126.052 50.816 125.96 51.208 125.96 51.664C125.96 52.12 126.052 52.52 126.236 52.864C126.428 53.208 126.676 53.472 126.98 53.656C127.292 53.832 127.62 53.92 127.964 53.92C128.316 53.92 128.644 53.832 128.948 53.656C129.252 53.48 129.496 53.224 129.68 52.888C129.872 52.544 129.968 52.144 129.968 51.688ZM134.861 49.504V53.164C134.861 53.412 134.917 53.592 135.029 53.704C135.149 53.808 135.349 53.86 135.629 53.86H136.469V55H135.389C134.773 55 134.301 54.856 133.973 54.568C133.645 54.28 133.481 53.812 133.481 53.164V49.504H132.701V48.388H133.481V46.744H134.861V48.388H136.469V49.504H134.861ZM138.545 47.512C138.297 47.512 138.089 47.428 137.921 47.26C137.753 47.092 137.669 46.884 137.669 46.636C137.669 46.388 137.753 46.18 137.921 46.012C138.089 45.844 138.297 45.76 138.545 45.76C138.785 45.76 138.989 45.844 139.157 46.012C139.325 46.18 139.409 46.388 139.409 46.636C139.409 46.884 139.325 47.092 139.157 47.26C138.989 47.428 138.785 47.512 138.545 47.512ZM139.217 48.388V55H137.849V48.388H139.217ZM144.469 48.28C144.989 48.28 145.453 48.388 145.861 48.604C146.277 48.82 146.601 49.14 146.833 49.564C147.065 49.988 147.181 50.5 147.181 51.1V55H145.825V51.304C145.825 50.712 145.677 50.26 145.381 49.948C145.085 49.628 144.681 49.468 144.169 49.468C143.657 49.468 143.249 49.628 142.945 49.948C142.649 50.26 142.501 50.712 142.501 51.304V55H141.133V48.388H142.501V49.144C142.725 48.872 143.009 48.66 143.353 48.508C143.705 48.356 144.077 48.28 144.469 48.28ZM151.71 48.28C152.222 48.28 152.674 48.384 153.066 48.592C153.466 48.792 153.778 49.044 154.002 49.348V48.388H155.382V55.108C155.382 55.716 155.254 56.256 154.998 56.728C154.742 57.208 154.37 57.584 153.882 57.856C153.402 58.128 152.826 58.264 152.154 58.264C151.258 58.264 150.514 58.052 149.922 57.628C149.33 57.212 148.994 56.644 148.914 55.924H150.27C150.374 56.268 150.594 56.544 150.93 56.752C151.274 56.968 151.682 57.076 152.154 57.076C152.706 57.076 153.15 56.908 153.486 56.572C153.83 56.236 154.002 55.748 154.002 55.108V54.004C153.77 54.316 153.454 54.58 153.054 54.796C152.662 55.004 152.214 55.108 151.71 55.108C151.134 55.108 150.606 54.964 150.126 54.676C149.654 54.38 149.278 53.972 148.998 53.452C148.726 52.924 148.59 52.328 148.59 51.664C148.59 51 148.726 50.412 148.998 49.9C149.278 49.388 149.654 48.992 150.126 48.712C150.606 48.424 151.134 48.28 151.71 48.28ZM154.002 51.688C154.002 51.232 153.906 50.836 153.714 50.5C153.53 50.164 153.286 49.908 152.982 49.732C152.678 49.556 152.35 49.468 151.998 49.468C151.646 49.468 151.318 49.556 151.014 49.732C150.71 49.9 150.462 50.152 150.27 50.488C150.086 50.816 149.994 51.208 149.994 51.664C149.994 52.12 150.086 52.52 150.27 52.864C150.462 53.208 150.71 53.472 151.014 53.656C151.326 53.832 151.654 53.92 151.998 53.92C152.35 53.92 152.678 53.832 152.982 53.656C153.286 53.48 153.53 53.224 153.714 52.888C153.906 52.544 154.002 52.144 154.002 51.688ZM166.368 49.144C166.368 49.568 166.268 49.968 166.068 50.344C165.868 50.72 165.548 51.028 165.108 51.268C164.668 51.5 164.104 51.616 163.416 51.616H161.904V55H160.536V46.66H163.416C164.056 46.66 164.596 46.772 165.036 46.996C165.484 47.212 165.816 47.508 166.032 47.884C166.256 48.26 166.368 48.68 166.368 49.144ZM163.416 50.5C163.936 50.5 164.324 50.384 164.58 50.152C164.836 49.912 164.964 49.576 164.964 49.144C164.964 48.232 164.448 47.776 163.416 47.776H161.904V50.5H163.416ZM169.161 49.348C169.361 49.012 169.625 48.752 169.953 48.568C170.289 48.376 170.685 48.28 171.141 48.28V49.696H170.793C170.257 49.696 169.849 49.832 169.569 50.104C169.297 50.376 169.161 50.848 169.161 51.52V55H167.793V48.388H169.161V49.348ZM173.215 47.512C172.967 47.512 172.759 47.428 172.591 47.26C172.423 47.092 172.339 46.884 172.339 46.636C172.339 46.388 172.423 46.18 172.591 46.012C172.759 45.844 172.967 45.76 173.215 45.76C173.455 45.76 173.659 45.844 173.827 46.012C173.995 46.18 174.079 46.388 174.079 46.636C174.079 46.884 173.995 47.092 173.827 47.26C173.659 47.428 173.455 47.512 173.215 47.512ZM173.887 48.388V55H172.519V48.388H173.887ZM175.347 51.664C175.347 51 175.483 50.412 175.755 49.9C176.035 49.388 176.411 48.992 176.883 48.712C177.363 48.424 177.895 48.28 178.479 48.28C178.911 48.28 179.335 48.376 179.751 48.568C180.175 48.752 180.511 49 180.759 49.312V46.12H182.139V55H180.759V54.004C180.535 54.324 180.223 54.588 179.823 54.796C179.431 55.004 178.979 55.108 178.467 55.108C177.891 55.108 177.363 54.964 176.883 54.676C176.411 54.38 176.035 53.972 175.755 53.452C175.483 52.924 175.347 52.328 175.347 51.664ZM180.759 51.688C180.759 51.232 180.663 50.836 180.471 50.5C180.287 50.164 180.043 49.908 179.739 49.732C179.435 49.556 179.107 49.468 178.755 49.468C178.403 49.468 178.075 49.556 177.771 49.732C177.467 49.9 177.219 50.152 177.027 50.488C176.843 50.816 176.751 51.208 176.751 51.664C176.751 52.12 176.843 52.52 177.027 52.864C177.219 53.208 177.467 53.472 177.771 53.656C178.083 53.832 178.411 53.92 178.755 53.92C179.107 53.92 179.435 53.832 179.739 53.656C180.043 53.48 180.287 53.224 180.471 52.888C180.663 52.544 180.759 52.144 180.759 51.688ZM190.115 51.532C190.115 51.78 190.099 52.004 190.067 52.204H185.015C185.055 52.732 185.251 53.156 185.603 53.476C185.955 53.796 186.387 53.956 186.899 53.956C187.635 53.956 188.155 53.648 188.459 53.032H189.935C189.735 53.64 189.371 54.14 188.843 54.532C188.323 54.916 187.675 55.108 186.899 55.108C186.267 55.108 185.699 54.968 185.195 54.688C184.699 54.4 184.307 54 184.019 53.488C183.739 52.968 183.599 52.368 183.599 51.688C183.599 51.008 183.735 50.412 184.007 49.9C184.287 49.38 184.675 48.98 185.171 48.7C185.675 48.42 186.251 48.28 186.899 48.28C187.523 48.28 188.079 48.416 188.567 48.688C189.055 48.96 189.435 49.344 189.707 49.84C189.979 50.328 190.115 50.892 190.115 51.532ZM188.687 51.1C188.679 50.596 188.499 50.192 188.147 49.888C187.795 49.584 187.359 49.432 186.839 49.432C186.367 49.432 185.963 49.584 185.627 49.888C185.291 50.184 185.091 50.588 185.027 51.1H188.687ZM201.263 55L200.231 53.968C199.831 54.368 199.395 54.668 198.923 54.868C198.451 55.06 197.923 55.156 197.339 55.156C196.747 55.156 196.223 55.052 195.767 54.844C195.311 54.636 194.959 54.34 194.711 53.956C194.463 53.564 194.339 53.112 194.339 52.6C194.339 52.024 194.503 51.512 194.831 51.064C195.159 50.608 195.647 50.248 196.295 49.984C196.063 49.704 195.899 49.444 195.803 49.204C195.707 48.956 195.659 48.684 195.659 48.388C195.659 48.02 195.751 47.692 195.935 47.404C196.127 47.116 196.399 46.888 196.751 46.72C197.103 46.552 197.511 46.468 197.975 46.468C198.447 46.468 198.847 46.56 199.175 46.744C199.511 46.92 199.759 47.164 199.919 47.476C200.087 47.788 200.155 48.136 200.123 48.52H198.755C198.763 48.224 198.691 47.996 198.539 47.836C198.387 47.668 198.179 47.584 197.915 47.584C197.651 47.584 197.435 47.664 197.267 47.824C197.107 47.976 197.027 48.164 197.027 48.388C197.027 48.604 197.087 48.82 197.207 49.036C197.335 49.244 197.555 49.516 197.867 49.852L200.075 52.048L200.927 50.644H202.403L201.323 52.492L201.023 52.984L203.051 55H201.263ZM197.339 53.992C198.091 53.992 198.755 53.684 199.331 53.068L197.123 50.848C196.179 51.224 195.707 51.792 195.707 52.552C195.707 52.96 195.859 53.304 196.163 53.584C196.467 53.856 196.859 53.992 197.339 53.992ZM213.137 49.144C213.137 49.568 213.037 49.968 212.837 50.344C212.637 50.72 212.317 51.028 211.877 51.268C211.437 51.5 210.873 51.616 210.185 51.616H208.673V55H207.305V46.66H210.185C210.825 46.66 211.365 46.772 211.805 46.996C212.253 47.212 212.585 47.508 212.801 47.884C213.025 48.26 213.137 48.68 213.137 49.144ZM210.185 50.5C210.705 50.5 211.093 50.384 211.349 50.152C211.605 49.912 211.733 49.576 211.733 49.144C211.733 48.232 211.217 47.776 210.185 47.776H208.673V50.5H210.185ZM215.93 49.348C216.13 49.012 216.394 48.752 216.722 48.568C217.058 48.376 217.454 48.28 217.91 48.28V49.696H217.562C217.026 49.696 216.618 49.832 216.338 50.104C216.066 50.376 215.93 50.848 215.93 51.52V55H214.562V48.388H215.93V49.348ZM222.155 55.108C221.531 55.108 220.967 54.968 220.463 54.688C219.959 54.4 219.563 54 219.275 53.488C218.987 52.968 218.843 52.368 218.843 51.688C218.843 51.016 218.991 50.42 219.287 49.9C219.583 49.38 219.987 48.98 220.499 48.7C221.011 48.42 221.583 48.28 222.215 48.28C222.847 48.28 223.419 48.42 223.931 48.7C224.443 48.98 224.847 49.38 225.143 49.9C225.439 50.42 225.587 51.016 225.587 51.688C225.587 52.36 225.435 52.956 225.131 53.476C224.827 53.996 224.411 54.4 223.883 54.688C223.363 54.968 222.787 55.108 222.155 55.108ZM222.155 53.92C222.507 53.92 222.835 53.836 223.139 53.668C223.451 53.5 223.703 53.248 223.895 52.912C224.087 52.576 224.183 52.168 224.183 51.688C224.183 51.208 224.091 50.804 223.907 50.476C223.723 50.14 223.479 49.888 223.175 49.72C222.871 49.552 222.543 49.468 222.191 49.468C221.839 49.468 221.511 49.552 221.207 49.72C220.911 49.888 220.675 50.14 220.499 50.476C220.323 50.804 220.235 51.208 220.235 51.688C220.235 52.4 220.415 52.952 220.775 53.344C221.143 53.728 221.603 53.92 222.155 53.92ZM229.724 48.28C230.236 48.28 230.688 48.384 231.08 48.592C231.48 48.792 231.792 49.044 232.016 49.348V48.388H233.396V55.108C233.396 55.716 233.268 56.256 233.012 56.728C232.756 57.208 232.384 57.584 231.896 57.856C231.416 58.128 230.84 58.264 230.168 58.264C229.272 58.264 228.528 58.052 227.936 57.628C227.344 57.212 227.008 56.644 226.928 55.924H228.284C228.388 56.268 228.608 56.544 228.944 56.752C229.288 56.968 229.696 57.076 230.168 57.076C230.72 57.076 231.164 56.908 231.5 56.572C231.844 56.236 232.016 55.748 232.016 55.108V54.004C231.784 54.316 231.468 54.58 231.068 54.796C230.676 55.004 230.228 55.108 229.724 55.108C229.148 55.108 228.62 54.964 228.14 54.676C227.668 54.38 227.292 53.972 227.012 53.452C226.74 52.924 226.604 52.328 226.604 51.664C226.604 51 226.74 50.412 227.012 49.9C227.292 49.388 227.668 48.992 228.14 48.712C228.62 48.424 229.148 48.28 229.724 48.28ZM232.016 51.688C232.016 51.232 231.92 50.836 231.728 50.5C231.544 50.164 231.3 49.908 230.996 49.732C230.692 49.556 230.364 49.468 230.012 49.468C229.66 49.468 229.332 49.556 229.028 49.732C228.724 49.9 228.476 50.152 228.284 50.488C228.1 50.816 228.008 51.208 228.008 51.664C228.008 52.12 228.1 52.52 228.284 52.864C228.476 53.208 228.724 53.472 229.028 53.656C229.34 53.832 229.668 53.92 230.012 53.92C230.364 53.92 230.692 53.832 230.996 53.656C231.3 53.48 231.544 53.224 231.728 52.888C231.92 52.544 232.016 52.144 232.016 51.688ZM236.68 49.348C236.88 49.012 237.144 48.752 237.472 48.568C237.808 48.376 238.204 48.28 238.66 48.28V49.696H238.312C237.776 49.696 237.368 49.832 237.088 50.104C236.816 50.376 236.68 50.848 236.68 51.52V55H235.312V48.388H236.68V49.348ZM246.098 51.532C246.098 51.78 246.082 52.004 246.05 52.204H240.998C241.038 52.732 241.234 53.156 241.586 53.476C241.938 53.796 242.37 53.956 242.882 53.956C243.618 53.956 244.138 53.648 244.442 53.032H245.918C245.718 53.64 245.354 54.14 244.826 54.532C244.306 54.916 243.658 55.108 242.882 55.108C242.25 55.108 241.682 54.968 241.178 54.688C240.682 54.4 240.29 54 240.002 53.488C239.722 52.968 239.582 52.368 239.582 51.688C239.582 51.008 239.718 50.412 239.99 49.9C240.27 49.38 240.658 48.98 241.154 48.7C241.658 48.42 242.234 48.28 242.882 48.28C243.506 48.28 244.062 48.416 244.55 48.688C245.038 48.96 245.418 49.344 245.69 49.84C245.962 50.328 246.098 50.892 246.098 51.532ZM244.67 51.1C244.662 50.596 244.482 50.192 244.13 49.888C243.778 49.584 243.342 49.432 242.822 49.432C242.35 49.432 241.946 49.584 241.61 49.888C241.274 50.184 241.074 50.588 241.01 51.1H244.67ZM249.964 55.108C249.444 55.108 248.976 55.016 248.56 54.832C248.152 54.64 247.828 54.384 247.588 54.064C247.348 53.736 247.22 53.372 247.204 52.972H248.62C248.644 53.252 248.776 53.488 249.016 53.68C249.264 53.864 249.572 53.956 249.94 53.956C250.324 53.956 250.62 53.884 250.828 53.74C251.044 53.588 251.152 53.396 251.152 53.164C251.152 52.916 251.032 52.732 250.792 52.612C250.56 52.492 250.188 52.36 249.676 52.216C249.18 52.08 248.776 51.948 248.464 51.82C248.152 51.692 247.88 51.496 247.648 51.232C247.424 50.968 247.312 50.62 247.312 50.188C247.312 49.836 247.416 49.516 247.624 49.228C247.832 48.932 248.128 48.7 248.512 48.532C248.904 48.364 249.352 48.28 249.856 48.28C250.608 48.28 251.212 48.472 251.668 48.856C252.132 49.232 252.38 49.748 252.412 50.404H251.044C251.02 50.108 250.9 49.872 250.684 49.696C250.468 49.52 250.176 49.432 249.808 49.432C249.448 49.432 249.172 49.5 248.98 49.636C248.788 49.772 248.692 49.952 248.692 50.176C248.692 50.352 248.756 50.5 248.884 50.62C249.012 50.74 249.168 50.836 249.352 50.908C249.536 50.972 249.808 51.056 250.168 51.16C250.648 51.288 251.04 51.42 251.344 51.556C251.656 51.684 251.924 51.876 252.148 52.132C252.372 52.388 252.488 52.728 252.496 53.152C252.496 53.528 252.392 53.864 252.184 54.16C251.976 54.456 251.68 54.688 251.296 54.856C250.92 55.024 250.476 55.108 249.964 55.108ZM256.494 55.108C255.974 55.108 255.506 55.016 255.09 54.832C254.682 54.64 254.358 54.384 254.118 54.064C253.878 53.736 253.75 53.372 253.734 52.972H255.15C255.174 53.252 255.306 53.488 255.546 53.68C255.794 53.864 256.102 53.956 256.47 53.956C256.854 53.956 257.15 53.884 257.358 53.74C257.574 53.588 257.682 53.396 257.682 53.164C257.682 52.916 257.562 52.732 257.322 52.612C257.09 52.492 256.718 52.36 256.206 52.216C255.71 52.08 255.306 51.948 254.994 51.82C254.682 51.692 254.41 51.496 254.178 51.232C253.954 50.968 253.842 50.62 253.842 50.188C253.842 49.836 253.946 49.516 254.154 49.228C254.362 48.932 254.658 48.7 255.042 48.532C255.434 48.364 255.882 48.28 256.386 48.28C257.138 48.28 257.742 48.472 258.198 48.856C258.662 49.232 258.91 49.748 258.942 50.404H257.574C257.55 50.108 257.43 49.872 257.214 49.696C256.998 49.52 256.706 49.432 256.338 49.432C255.978 49.432 255.702 49.5 255.51 49.636C255.318 49.772 255.222 49.952 255.222 50.176C255.222 50.352 255.286 50.5 255.414 50.62C255.542 50.74 255.698 50.836 255.882 50.908C256.066 50.972 256.338 51.056 256.698 51.16C257.178 51.288 257.57 51.42 257.874 51.556C258.186 51.684 258.454 51.876 258.678 52.132C258.902 52.388 259.018 52.728 259.026 53.152C259.026 53.528 258.922 53.864 258.714 54.16C258.506 54.456 258.21 54.688 257.826 54.856C257.45 55.024 257.006 55.108 256.494 55.108Z" fill="white"/>
<path d="M83.8396 50.812C83.8396 49.996 84.0276 49.264 84.4036 48.616C84.7876 47.968 85.3036 47.464 85.9516 47.104C86.6076 46.736 87.3236 46.552 88.0996 46.552C88.9876 46.552 89.7756 46.772 90.4636 47.212C91.1596 47.644 91.6636 48.26 91.9756 49.06H90.3316C90.1156 48.62 89.8156 48.292 89.4316 48.076C89.0476 47.86 88.6036 47.752 88.0996 47.752C87.5476 47.752 87.0556 47.876 86.6236 48.124C86.1916 48.372 85.8516 48.728 85.6036 49.192C85.3636 49.656 85.2436 50.196 85.2436 50.812C85.2436 51.428 85.3636 51.968 85.6036 52.432C85.8516 52.896 86.1916 53.256 86.6236 53.512C87.0556 53.76 87.5476 53.884 88.0996 53.884C88.6036 53.884 89.0476 53.776 89.4316 53.56C89.8156 53.344 90.1156 53.016 90.3316 52.576H91.9756C91.6636 53.376 91.1596 53.992 90.4636 54.424C89.7756 54.856 88.9876 55.072 88.0996 55.072C87.3156 55.072 86.5996 54.892 85.9516 54.532C85.3036 54.164 84.7876 53.656 84.4036 53.008C84.0276 52.36 83.8396 51.628 83.8396 50.812ZM99.7569 51.532C99.7569 51.78 99.7409 52.004 99.7089 52.204H94.6569C94.6969 52.732 94.8929 53.156 95.2449 53.476C95.5969 53.796 96.0289 53.956 96.5409 53.956C97.2769 53.956 97.7969 53.648 98.1009 53.032H99.5769C99.3769 53.64 99.0129 54.14 98.4849 54.532C97.9649 54.916 97.3169 55.108 96.5409 55.108C95.9089 55.108 95.3409 54.968 94.8369 54.688C94.3409 54.4 93.9489 54 93.6609 53.488C93.3809 52.968 93.2409 52.368 93.2409 51.688C93.2409 51.008 93.3769 50.412 93.6489 49.9C93.9289 49.38 94.3169 48.98 94.8129 48.7C95.3169 48.42 95.8929 48.28 96.5409 48.28C97.1649 48.28 97.7209 48.416 98.2089 48.688C98.6969 48.96 99.0769 49.344 99.3489 49.84C99.6209 50.328 99.7569 50.892 99.7569 51.532ZM98.3289 51.1C98.3209 50.596 98.1409 50.192 97.7889 49.888C97.4369 49.584 97.0009 49.432 96.4809 49.432C96.0089 49.432 95.6049 49.584 95.2689 49.888C94.9329 50.184 94.7329 50.588 94.6689 51.1H98.3289ZM102.591 46.12V55H101.223V46.12H102.591ZM110.567 51.532C110.567 51.78 110.551 52.004 110.519 52.204H105.467C105.507 52.732 105.703 53.156 106.055 53.476C106.407 53.796 106.839 53.956 107.351 53.956C108.087 53.956 108.607 53.648 108.911 53.032H110.387C110.187 53.64 109.823 54.14 109.295 54.532C108.775 54.916 108.127 55.108 107.351 55.108C106.719 55.108 106.151 54.968 105.647 54.688C105.151 54.4 104.759 54 104.471 53.488C104.191 52.968 104.051 52.368 104.051 51.688C104.051 51.008 104.187 50.412 104.459 49.9C104.739 49.38 105.127 48.98 105.623 48.7C106.127 48.42 106.703 48.28 107.351 48.28C107.975 48.28 108.531 48.416 109.019 48.688C109.507 48.96 109.887 49.344 110.159 49.84C110.431 50.328 110.567 50.892 110.567 51.532ZM109.139 51.1C109.131 50.596 108.951 50.192 108.599 49.888C108.247 49.584 107.811 49.432 107.291 49.432C106.819 49.432 106.415 49.584 106.079 49.888C105.743 50.184 105.543 50.588 105.479 51.1H109.139ZM113.401 49.372C113.633 49.052 113.949 48.792 114.349 48.592C114.757 48.384 115.209 48.28 115.705 48.28C116.289 48.28 116.817 48.42 117.289 48.7C117.761 48.98 118.133 49.38 118.405 49.9C118.677 50.412 118.813 51 118.813 51.664C118.813 52.328 118.677 52.924 118.405 53.452C118.133 53.972 117.757 54.38 117.277 54.676C116.805 54.964 116.281 55.108 115.705 55.108C115.193 55.108 114.737 55.008 114.337 54.808C113.945 54.608 113.633 54.352 113.401 54.04V55H112.033V46.12H113.401V49.372ZM117.421 51.664C117.421 51.208 117.325 50.816 117.133 50.488C116.949 50.152 116.701 49.9 116.389 49.732C116.085 49.556 115.757 49.468 115.405 49.468C115.061 49.468 114.733 49.556 114.421 49.732C114.117 49.908 113.869 50.164 113.677 50.5C113.493 50.836 113.401 51.232 113.401 51.688C113.401 52.144 113.493 52.544 113.677 52.888C113.869 53.224 114.117 53.48 114.421 53.656C114.733 53.832 115.061 53.92 115.405 53.92C115.757 53.92 116.085 53.832 116.389 53.656C116.701 53.472 116.949 53.208 117.133 52.864C117.325 52.52 117.421 52.12 117.421 51.664ZM121.654 49.348C121.854 49.012 122.118 48.752 122.446 48.568C122.782 48.376 123.178 48.28 123.634 48.28V49.696H123.286C122.75 49.696 122.342 49.832 122.062 50.104C121.79 50.376 121.654 50.848 121.654 51.52V55H120.286V48.388H121.654V49.348ZM124.556 51.664C124.556 51 124.692 50.412 124.964 49.9C125.244 49.388 125.62 48.992 126.092 48.712C126.572 48.424 127.1 48.28 127.676 48.28C128.196 48.28 128.648 48.384 129.032 48.592C129.424 48.792 129.736 49.044 129.968 49.348V48.388H131.348V55H129.968V54.016C129.736 54.328 129.42 54.588 129.02 54.796C128.62 55.004 128.164 55.108 127.652 55.108C127.084 55.108 126.564 54.964 126.092 54.676C125.62 54.38 125.244 53.972 124.964 53.452C124.692 52.924 124.556 52.328 124.556 51.664ZM129.968 51.688C129.968 51.232 129.872 50.836 129.68 50.5C129.496 50.164 129.252 49.908 128.948 49.732C128.644 49.556 128.316 49.468 127.964 49.468C127.612 49.468 127.284 49.556 126.98 49.732C126.676 49.9 126.428 50.152 126.236 50.488C126.052 50.816 125.96 51.208 125.96 51.664C125.96 52.12 126.052 52.52 126.236 52.864C126.428 53.208 126.676 53.472 126.98 53.656C127.292 53.832 127.62 53.92 127.964 53.92C128.316 53.92 128.644 53.832 128.948 53.656C129.252 53.48 129.496 53.224 129.68 52.888C129.872 52.544 129.968 52.144 129.968 51.688ZM134.861 49.504V53.164C134.861 53.412 134.917 53.592 135.029 53.704C135.149 53.808 135.349 53.86 135.629 53.86H136.469V55H135.389C134.773 55 134.301 54.856 133.973 54.568C133.645 54.28 133.481 53.812 133.481 53.164V49.504H132.701V48.388H133.481V46.744H134.861V48.388H136.469V49.504H134.861ZM138.545 47.512C138.297 47.512 138.089 47.428 137.921 47.26C137.753 47.092 137.669 46.884 137.669 46.636C137.669 46.388 137.753 46.18 137.921 46.012C138.089 45.844 138.297 45.76 138.545 45.76C138.785 45.76 138.989 45.844 139.157 46.012C139.325 46.18 139.409 46.388 139.409 46.636C139.409 46.884 139.325 47.092 139.157 47.26C138.989 47.428 138.785 47.512 138.545 47.512ZM139.217 48.388V55H137.849V48.388H139.217ZM144.469 48.28C144.989 48.28 145.453 48.388 145.861 48.604C146.277 48.82 146.601 49.14 146.833 49.564C147.065 49.988 147.181 50.5 147.181 51.1V55H145.825V51.304C145.825 50.712 145.677 50.26 145.381 49.948C145.085 49.628 144.681 49.468 144.169 49.468C143.657 49.468 143.249 49.628 142.945 49.948C142.649 50.26 142.501 50.712 142.501 51.304V55H141.133V48.388H142.501V49.144C142.725 48.872 143.009 48.66 143.353 48.508C143.705 48.356 144.077 48.28 144.469 48.28ZM151.71 48.28C152.222 48.28 152.674 48.384 153.066 48.592C153.466 48.792 153.778 49.044 154.002 49.348V48.388H155.382V55.108C155.382 55.716 155.254 56.256 154.998 56.728C154.742 57.208 154.37 57.584 153.882 57.856C153.402 58.128 152.826 58.264 152.154 58.264C151.258 58.264 150.514 58.052 149.922 57.628C149.33 57.212 148.994 56.644 148.914 55.924H150.27C150.374 56.268 150.594 56.544 150.93 56.752C151.274 56.968 151.682 57.076 152.154 57.076C152.706 57.076 153.15 56.908 153.486 56.572C153.83 56.236 154.002 55.748 154.002 55.108V54.004C153.77 54.316 153.454 54.58 153.054 54.796C152.662 55.004 152.214 55.108 151.71 55.108C151.134 55.108 150.606 54.964 150.126 54.676C149.654 54.38 149.278 53.972 148.998 53.452C148.726 52.924 148.59 52.328 148.59 51.664C148.59 51 148.726 50.412 148.998 49.9C149.278 49.388 149.654 48.992 150.126 48.712C150.606 48.424 151.134 48.28 151.71 48.28ZM154.002 51.688C154.002 51.232 153.906 50.836 153.714 50.5C153.53 50.164 153.286 49.908 152.982 49.732C152.678 49.556 152.35 49.468 151.998 49.468C151.646 49.468 151.318 49.556 151.014 49.732C150.71 49.9 150.462 50.152 150.27 50.488C150.086 50.816 149.994 51.208 149.994 51.664C149.994 52.12 150.086 52.52 150.27 52.864C150.462 53.208 150.71 53.472 151.014 53.656C151.326 53.832 151.654 53.92 151.998 53.92C152.35 53.92 152.678 53.832 152.982 53.656C153.286 53.48 153.53 53.224 153.714 52.888C153.906 52.544 154.002 52.144 154.002 51.688ZM166.368 49.144C166.368 49.568 166.268 49.968 166.068 50.344C165.868 50.72 165.548 51.028 165.108 51.268C164.668 51.5 164.104 51.616 163.416 51.616H161.904V55H160.536V46.66H163.416C164.056 46.66 164.596 46.772 165.036 46.996C165.484 47.212 165.816 47.508 166.032 47.884C166.256 48.26 166.368 48.68 166.368 49.144ZM163.416 50.5C163.936 50.5 164.324 50.384 164.58 50.152C164.836 49.912 164.964 49.576 164.964 49.144C164.964 48.232 164.448 47.776 163.416 47.776H161.904V50.5H163.416ZM169.161 49.348C169.361 49.012 169.625 48.752 169.953 48.568C170.289 48.376 170.685 48.28 171.141 48.28V49.696H170.793C170.257 49.696 169.849 49.832 169.569 50.104C169.297 50.376 169.161 50.848 169.161 51.52V55H167.793V48.388H169.161V49.348ZM173.215 47.512C172.967 47.512 172.759 47.428 172.591 47.26C172.423 47.092 172.339 46.884 172.339 46.636C172.339 46.388 172.423 46.18 172.591 46.012C172.759 45.844 172.967 45.76 173.215 45.76C173.455 45.76 173.659 45.844 173.827 46.012C173.995 46.18 174.079 46.388 174.079 46.636C174.079 46.884 173.995 47.092 173.827 47.26C173.659 47.428 173.455 47.512 173.215 47.512ZM173.887 48.388V55H172.519V48.388H173.887ZM175.347 51.664C175.347 51 175.483 50.412 175.755 49.9C176.035 49.388 176.411 48.992 176.883 48.712C177.363 48.424 177.895 48.28 178.479 48.28C178.911 48.28 179.335 48.376 179.751 48.568C180.175 48.752 180.511 49 180.759 49.312V46.12H182.139V55H180.759V54.004C180.535 54.324 180.223 54.588 179.823 54.796C179.431 55.004 178.979 55.108 178.467 55.108C177.891 55.108 177.363 54.964 176.883 54.676C176.411 54.38 176.035 53.972 175.755 53.452C175.483 52.924 175.347 52.328 175.347 51.664ZM180.759 51.688C180.759 51.232 180.663 50.836 180.471 50.5C180.287 50.164 180.043 49.908 179.739 49.732C179.435 49.556 179.107 49.468 178.755 49.468C178.403 49.468 178.075 49.556 177.771 49.732C177.467 49.9 177.219 50.152 177.027 50.488C176.843 50.816 176.751 51.208 176.751 51.664C176.751 52.12 176.843 52.52 177.027 52.864C177.219 53.208 177.467 53.472 177.771 53.656C178.083 53.832 178.411 53.92 178.755 53.92C179.107 53.92 179.435 53.832 179.739 53.656C180.043 53.48 180.287 53.224 180.471 52.888C180.663 52.544 180.759 52.144 180.759 51.688ZM190.115 51.532C190.115 51.78 190.099 52.004 190.067 52.204H185.015C185.055 52.732 185.251 53.156 185.603 53.476C185.955 53.796 186.387 53.956 186.899 53.956C187.635 53.956 188.155 53.648 188.459 53.032H189.935C189.735 53.64 189.371 54.14 188.843 54.532C188.323 54.916 187.675 55.108 186.899 55.108C186.267 55.108 185.699 54.968 185.195 54.688C184.699 54.4 184.307 54 184.019 53.488C183.739 52.968 183.599 52.368 183.599 51.688C183.599 51.008 183.735 50.412 184.007 49.9C184.287 49.38 184.675 48.98 185.171 48.7C185.675 48.42 186.251 48.28 186.899 48.28C187.523 48.28 188.079 48.416 188.567 48.688C189.055 48.96 189.435 49.344 189.707 49.84C189.979 50.328 190.115 50.892 190.115 51.532ZM188.687 51.1C188.679 50.596 188.499 50.192 188.147 49.888C187.795 49.584 187.359 49.432 186.839 49.432C186.367 49.432 185.963 49.584 185.627 49.888C185.291 50.184 185.091 50.588 185.027 51.1H188.687ZM201.263 55L200.231 53.968C199.831 54.368 199.395 54.668 198.923 54.868C198.451 55.06 197.923 55.156 197.339 55.156C196.747 55.156 196.223 55.052 195.767 54.844C195.311 54.636 194.959 54.34 194.711 53.956C194.463 53.564 194.339 53.112 194.339 52.6C194.339 52.024 194.503 51.512 194.831 51.064C195.159 50.608 195.647 50.248 196.295 49.984C196.063 49.704 195.899 49.444 195.803 49.204C195.707 48.956 195.659 48.684 195.659 48.388C195.659 48.02 195.751 47.692 195.935 47.404C196.127 47.116 196.399 46.888 196.751 46.72C197.103 46.552 197.511 46.468 197.975 46.468C198.447 46.468 198.847 46.56 199.175 46.744C199.511 46.92 199.759 47.164 199.919 47.476C200.087 47.788 200.155 48.136 200.123 48.52H198.755C198.763 48.224 198.691 47.996 198.539 47.836C198.387 47.668 198.179 47.584 197.915 47.584C197.651 47.584 197.435 47.664 197.267 47.824C197.107 47.976 197.027 48.164 197.027 48.388C197.027 48.604 197.087 48.82 197.207 49.036C197.335 49.244 197.555 49.516 197.867 49.852L200.075 52.048L200.927 50.644H202.403L201.323 52.492L201.023 52.984L203.051 55H201.263ZM197.339 53.992C198.091 53.992 198.755 53.684 199.331 53.068L197.123 50.848C196.179 51.224 195.707 51.792 195.707 52.552C195.707 52.96 195.859 53.304 196.163 53.584C196.467 53.856 196.859 53.992 197.339 53.992ZM213.137 49.144C213.137 49.568 213.037 49.968 212.837 50.344C212.637 50.72 212.317 51.028 211.877 51.268C211.437 51.5 210.873 51.616 210.185 51.616H208.673V55H207.305V46.66H210.185C210.825 46.66 211.365 46.772 211.805 46.996C212.253 47.212 212.585 47.508 212.801 47.884C213.025 48.26 213.137 48.68 213.137 49.144ZM210.185 50.5C210.705 50.5 211.093 50.384 211.349 50.152C211.605 49.912 211.733 49.576 211.733 49.144C211.733 48.232 211.217 47.776 210.185 47.776H208.673V50.5H210.185ZM215.93 49.348C216.13 49.012 216.394 48.752 216.722 48.568C217.058 48.376 217.454 48.28 217.91 48.28V49.696H217.562C217.026 49.696 216.618 49.832 216.338 50.104C216.066 50.376 215.93 50.848 215.93 51.52V55H214.562V48.388H215.93V49.348ZM222.155 55.108C221.531 55.108 220.967 54.968 220.463 54.688C219.959 54.4 219.563 54 219.275 53.488C218.987 52.968 218.843 52.368 218.843 51.688C218.843 51.016 218.991 50.42 219.287 49.9C219.583 49.38 219.987 48.98 220.499 48.7C221.011 48.42 221.583 48.28 222.215 48.28C222.847 48.28 223.419 48.42 223.931 48.7C224.443 48.98 224.847 49.38 225.143 49.9C225.439 50.42 225.587 51.016 225.587 51.688C225.587 52.36 225.435 52.956 225.131 53.476C224.827 53.996 224.411 54.4 223.883 54.688C223.363 54.968 222.787 55.108 222.155 55.108ZM222.155 53.92C222.507 53.92 222.835 53.836 223.139 53.668C223.451 53.5 223.703 53.248 223.895 52.912C224.087 52.576 224.183 52.168 224.183 51.688C224.183 51.208 224.091 50.804 223.907 50.476C223.723 50.14 223.479 49.888 223.175 49.72C222.871 49.552 222.543 49.468 222.191 49.468C221.839 49.468 221.511 49.552 221.207 49.72C220.911 49.888 220.675 50.14 220.499 50.476C220.323 50.804 220.235 51.208 220.235 51.688C220.235 52.4 220.415 52.952 220.775 53.344C221.143 53.728 221.603 53.92 222.155 53.92ZM229.724 48.28C230.236 48.28 230.688 48.384 231.08 48.592C231.48 48.792 231.792 49.044 232.016 49.348V48.388H233.396V55.108C233.396 55.716 233.268 56.256 233.012 56.728C232.756 57.208 232.384 57.584 231.896 57.856C231.416 58.128 230.84 58.264 230.168 58.264C229.272 58.264 228.528 58.052 227.936 57.628C227.344 57.212 227.008 56.644 226.928 55.924H228.284C228.388 56.268 228.608 56.544 228.944 56.752C229.288 56.968 229.696 57.076 230.168 57.076C230.72 57.076 231.164 56.908 231.5 56.572C231.844 56.236 232.016 55.748 232.016 55.108V54.004C231.784 54.316 231.468 54.58 231.068 54.796C230.676 55.004 230.228 55.108 229.724 55.108C229.148 55.108 228.62 54.964 228.14 54.676C227.668 54.38 227.292 53.972 227.012 53.452C226.74 52.924 226.604 52.328 226.604 51.664C226.604 51 226.74 50.412 227.012 49.9C227.292 49.388 227.668 48.992 228.14 48.712C228.62 48.424 229.148 48.28 229.724 48.28ZM232.016 51.688C232.016 51.232 231.92 50.836 231.728 50.5C231.544 50.164 231.3 49.908 230.996 49.732C230.692 49.556 230.364 49.468 230.012 49.468C229.66 49.468 229.332 49.556 229.028 49.732C228.724 49.9 228.476 50.152 228.284 50.488C228.1 50.816 228.008 51.208 228.008 51.664C228.008 52.12 228.1 52.52 228.284 52.864C228.476 53.208 228.724 53.472 229.028 53.656C229.34 53.832 229.668 53.92 230.012 53.92C230.364 53.92 230.692 53.832 230.996 53.656C231.3 53.48 231.544 53.224 231.728 52.888C231.92 52.544 232.016 52.144 232.016 51.688ZM236.68 49.348C236.88 49.012 237.144 48.752 237.472 48.568C237.808 48.376 238.204 48.28 238.66 48.28V49.696H238.312C237.776 49.696 237.368 49.832 237.088 50.104C236.816 50.376 236.68 50.848 236.68 51.52V55H235.312V48.388H236.68V49.348ZM246.098 51.532C246.098 51.78 246.082 52.004 246.05 52.204H240.998C241.038 52.732 241.234 53.156 241.586 53.476C241.938 53.796 242.37 53.956 242.882 53.956C243.618 53.956 244.138 53.648 244.442 53.032H245.918C245.718 53.64 245.354 54.14 244.826 54.532C244.306 54.916 243.658 55.108 242.882 55.108C242.25 55.108 241.682 54.968 241.178 54.688C240.682 54.4 240.29 54 240.002 53.488C239.722 52.968 239.582 52.368 239.582 51.688C239.582 51.008 239.718 50.412 239.99 49.9C240.27 49.38 240.658 48.98 241.154 48.7C241.658 48.42 242.234 48.28 242.882 48.28C243.506 48.28 244.062 48.416 244.55 48.688C245.038 48.96 245.418 49.344 245.69 49.84C245.962 50.328 246.098 50.892 246.098 51.532ZM244.67 51.1C244.662 50.596 244.482 50.192 244.13 49.888C243.778 49.584 243.342 49.432 242.822 49.432C242.35 49.432 241.946 49.584 241.61 49.888C241.274 50.184 241.074 50.588 241.01 51.1H244.67ZM249.964 55.108C249.444 55.108 248.976 55.016 248.56 54.832C248.152 54.64 247.828 54.384 247.588 54.064C247.348 53.736 247.22 53.372 247.204 52.972H248.62C248.644 53.252 248.776 53.488 249.016 53.68C249.264 53.864 249.572 53.956 249.94 53.956C250.324 53.956 250.62 53.884 250.828 53.74C251.044 53.588 251.152 53.396 251.152 53.164C251.152 52.916 251.032 52.732 250.792 52.612C250.56 52.492 250.188 52.36 249.676 52.216C249.18 52.08 248.776 51.948 248.464 51.82C248.152 51.692 247.88 51.496 247.648 51.232C247.424 50.968 247.312 50.62 247.312 50.188C247.312 49.836 247.416 49.516 247.624 49.228C247.832 48.932 248.128 48.7 248.512 48.532C248.904 48.364 249.352 48.28 249.856 48.28C250.608 48.28 251.212 48.472 251.668 48.856C252.132 49.232 252.38 49.748 252.412 50.404H251.044C251.02 50.108 250.9 49.872 250.684 49.696C250.468 49.52 250.176 49.432 249.808 49.432C249.448 49.432 249.172 49.5 248.98 49.636C248.788 49.772 248.692 49.952 248.692 50.176C248.692 50.352 248.756 50.5 248.884 50.62C249.012 50.74 249.168 50.836 249.352 50.908C249.536 50.972 249.808 51.056 250.168 51.16C250.648 51.288 251.04 51.42 251.344 51.556C251.656 51.684 251.924 51.876 252.148 52.132C252.372 52.388 252.488 52.728 252.496 53.152C252.496 53.528 252.392 53.864 252.184 54.16C251.976 54.456 251.68 54.688 251.296 54.856C250.92 55.024 250.476 55.108 249.964 55.108ZM256.494 55.108C255.974 55.108 255.506 55.016 255.09 54.832C254.682 54.64 254.358 54.384 254.118 54.064C253.878 53.736 253.75 53.372 253.734 52.972H255.15C255.174 53.252 255.306 53.488 255.546 53.68C255.794 53.864 256.102 53.956 256.47 53.956C256.854 53.956 257.15 53.884 257.358 53.74C257.574 53.588 257.682 53.396 257.682 53.164C257.682 52.916 257.562 52.732 257.322 52.612C257.09 52.492 256.718 52.36 256.206 52.216C255.71 52.08 255.306 51.948 254.994 51.82C254.682 51.692 254.41 51.496 254.178 51.232C253.954 50.968 253.842 50.62 253.842 50.188C253.842 49.836 253.946 49.516 254.154 49.228C254.362 48.932 254.658 48.7 255.042 48.532C255.434 48.364 255.882 48.28 256.386 48.28C257.138 48.28 257.742 48.472 258.198 48.856C258.662 49.232 258.91 49.748 258.942 50.404H257.574C257.55 50.108 257.43 49.872 257.214 49.696C256.998 49.52 256.706 49.432 256.338 49.432C255.978 49.432 255.702 49.5 255.51 49.636C255.318 49.772 255.222 49.952 255.222 50.176C255.222 50.352 255.286 50.5 255.414 50.62C255.542 50.74 255.698 50.836 255.882 50.908C256.066 50.972 256.338 51.056 256.698 51.16C257.178 51.288 257.57 51.42 257.874 51.556C258.186 51.684 258.454 51.876 258.678 52.132C258.902 52.388 259.018 52.728 259.026 53.152C259.026 53.528 258.922 53.864 258.714 54.16C258.506 54.456 258.21 54.688 257.826 54.856C257.45 55.024 257.006 55.108 256.494 55.108Z" fill="url(#paint0_linear_357_1989)"/>
</g>
<path d="M51.6531 91.75H58.1844C59.2573 91.75 60.1635 91.3906 60.9031 90.6719C61.6531 89.9427 62.0281 88.9167 62.0281 87.5938C62.0281 86.6042 61.6375 85.7188 60.8562 84.9375C60.075 84.1458 59.1844 83.75 58.1844 83.75H48.5281V104H47.4031V82.625H58.1844C59.4969 82.625 60.6531 83.1302 61.6531 84.1406C62.6531 85.151 63.1531 86.3021 63.1531 87.5938C63.1531 89.1875 62.6687 90.4688 61.7 91.4375C60.7312 92.3958 59.5594 92.875 58.1844 92.875H51.6531V91.75ZM51.6531 94H58.1844C59.2677 94 60.2677 93.7396 61.1844 93.2188C62.1115 92.6875 62.8562 91.9271 63.4187 90.9375C63.9917 89.9479 64.2781 88.8333 64.2781 87.5938C64.2781 85.9896 63.6635 84.5729 62.4344 83.3438C61.2156 82.1146 59.799 81.5 58.1844 81.5H46.2781V104H45.1531V80.375H58.1844C59.4448 80.375 60.6323 80.7083 61.7469 81.375C62.8615 82.0417 63.7469 82.9323 64.4031 84.0469C65.0698 85.1615 65.4031 86.3438 65.4031 87.5938C65.4031 89.0104 65.0698 90.3021 64.4031 91.4688C63.7365 92.625 62.851 93.526 61.7469 94.1719C60.6531 94.8073 59.4656 95.125 58.1844 95.125H51.6531V94ZM51.6531 96.25H58.1844C59.299 96.25 60.3667 96.0312 61.3875 95.5938C62.4083 95.1458 63.2937 94.5469 64.0437 93.7969C64.8042 93.0365 65.4083 92.1198 65.8562 91.0469C66.3042 89.9635 66.5281 88.8125 66.5281 87.5938C66.5281 86.1354 66.1479 84.7656 65.3875 83.4844C64.6271 82.1927 63.601 81.1667 62.3094 80.4062C61.0281 79.6354 59.6531 79.25 58.1844 79.25H44.0281V104H42.9031V78.125H58.1844C59.851 78.125 61.4135 78.5625 62.8719 79.4375C64.3302 80.3021 65.4917 81.4635 66.3562 82.9219C67.2208 84.3802 67.6531 85.9375 67.6531 87.5938C67.6531 89.0729 67.3979 90.4375 66.8875 91.6875C66.3771 92.9271 65.6896 93.9583 64.825 94.7812C63.9604 95.6042 62.9552 96.2448 61.8094 96.7031C60.6635 97.151 59.4552 97.375 58.1844 97.375H51.6531V96.25ZM50.7781 104H49.6531V84.875H58.1844C58.924 84.875 59.5594 85.1458 60.0906 85.6875C60.6323 86.2292 60.9031 86.8646 60.9031 87.5938C60.9031 89.6146 59.9969 90.625 58.1844 90.625H51.6531V89.5H58.1844C58.6844 89.5 59.075 89.3594 59.3562 89.0781C59.6375 88.7969 59.7781 88.3021 59.7781 87.5938C59.7781 87.1354 59.6219 86.7552 59.3094 86.4531C59.0073 86.151 58.6323 86 58.1844 86H50.7781V104ZM85.0219 91.125H91.8031C92.8344 91.125 93.7042 90.7917 94.4125 90.125C95.1312 89.4583 95.4906 88.5104 95.4906 87.2812C95.4906 86.375 95.1156 85.5625 94.3656 84.8438C93.6156 84.1146 92.7615 83.75 91.8031 83.75H82.1469V104H81.0219V82.625H91.8031C93.074 82.625 94.1937 83.099 95.1625 84.0469C96.1312 84.9844 96.6156 86.0625 96.6156 87.2812C96.6156 88.7812 96.1469 89.9844 95.2094 90.8906C94.2719 91.7969 93.1365 92.25 91.8031 92.25H85.0219V91.125ZM85.0219 93.375H91.8031C93.4281 93.375 94.824 92.8073 95.9906 91.6719C97.1573 90.526 97.7406 89.0625 97.7406 87.2812C97.7406 85.75 97.1417 84.4062 95.9437 83.25C94.7562 82.0833 93.376 81.5 91.8031 81.5H79.8969V104H78.7719V80.375H91.8031C93.0427 80.375 94.2042 80.6927 95.2875 81.3281C96.3812 81.9635 97.251 82.8177 97.8969 83.8906C98.5427 84.9531 98.8656 86.0833 98.8656 87.2812C98.8656 89.3333 98.1677 91.0521 96.7719 92.4375C95.3865 93.8125 93.7302 94.5 91.8031 94.5H85.0219V93.375ZM85.0219 95.625H91.8031C93.2615 95.625 94.6156 95.2656 95.8656 94.5469C97.1156 93.8281 98.1156 92.8281 98.8656 91.5469C99.6156 90.2552 99.9906 88.8333 99.9906 87.2812C99.9906 85.875 99.6156 84.5573 98.8656 83.3281C98.126 82.0885 97.126 81.099 95.8656 80.3594C94.6052 79.6198 93.251 79.25 91.8031 79.25H77.6469V104H76.5219V78.125H91.8031C93.4385 78.125 94.975 78.5469 96.4125 79.3906C97.85 80.224 98.9906 81.349 99.8344 82.7656C100.689 84.1719 101.116 85.6771 101.116 87.2812C101.116 89.1354 100.715 90.7656 99.9125 92.1719C99.1208 93.5781 98.0427 94.6771 96.6781 95.4688L99.5844 104H98.3969L95.6156 96C95.199 96.1667 94.8812 96.2812 94.6625 96.3438L97.2719 104H96.0844L93.5375 96.6094C93.4437 96.6302 93.1104 96.6667 92.5375 96.7188L94.9594 104H93.7719L91.3812 96.75H90.3656L92.6469 104H91.4594L89.1625 96.75H85.0219V95.625ZM84.3969 104H83.2719V84.875H91.8031C92.501 84.875 93.1 85.1146 93.6 85.5938C94.1104 86.0625 94.3656 86.625 94.3656 87.2812C94.3656 89.0938 93.5115 90 91.8031 90H85.0219V88.875H91.8031C92.251 88.875 92.6 88.7604 92.85 88.5312C93.1104 88.2917 93.2406 87.875 93.2406 87.2812C93.2406 86.9167 93.1 86.6146 92.8187 86.375C92.5479 86.125 92.2094 86 91.8031 86H84.3969V104ZM116.672 78.125H117.797V104H116.672V78.125ZM114.422 78.125H115.547V104H114.422V78.125ZM112.172 78.125H113.297V104H112.172V78.125ZM109.922 78.125H111.047V104H109.922V78.125ZM133.916 97.25V84.875C133.916 84.875 136.473 84.875 141.587 84.875C142.827 84.875 143.89 85.4844 144.775 86.7031C145.671 87.9115 146.119 89.3646 146.119 91.0625C146.119 92.7708 145.671 94.2292 144.775 95.4375C143.89 96.6458 142.827 97.25 141.587 97.25H133.916ZM135.041 96.125H141.587C142.515 96.125 143.306 95.6302 143.962 94.6406C144.629 93.651 144.962 92.4583 144.962 91.0625C144.962 89.6562 144.629 88.4635 143.962 87.4844C143.306 86.4948 142.515 86 141.587 86H135.041V96.125ZM132.791 98.375H141.587C143.14 98.375 144.473 97.6615 145.587 96.2344C146.712 94.7969 147.275 93.0729 147.275 91.0625C147.275 89.7396 147.015 88.5156 146.494 87.3906C145.983 86.2656 145.291 85.3802 144.416 84.7344C143.551 84.0781 142.608 83.75 141.587 83.75H132.791V98.375ZM131.666 99.5V82.625H141.587C142.806 82.625 143.942 83 144.994 83.75C146.046 84.5 146.879 85.526 147.494 86.8281C148.119 88.1198 148.431 89.5312 148.431 91.0625C148.431 92.5833 148.119 93.9948 147.494 95.2969C146.879 96.599 146.046 97.625 144.994 98.375C143.942 99.125 142.806 99.5 141.587 99.5H131.666ZM130.541 100.625H141.587C143.015 100.625 144.337 100.198 145.556 99.3438C146.785 98.4896 147.765 97.3281 148.494 95.8594C149.223 94.3906 149.587 92.7917 149.587 91.0625C149.587 89.3438 149.223 87.75 148.494 86.2812C147.765 84.8021 146.785 83.6354 145.556 82.7812C144.327 81.9271 143.004 81.5 141.587 81.5H130.541V100.625ZM129.416 101.75V80.375H141.587C143.212 80.375 144.728 80.8542 146.134 81.8125C147.541 82.7604 148.66 84.0573 149.494 85.7031C150.327 87.349 150.744 89.1354 150.744 91.0625C150.744 92.9896 150.327 94.776 149.494 96.4219C148.66 98.0677 147.541 99.3698 146.134 100.328C144.728 101.276 143.212 101.75 141.587 101.75H129.416ZM128.291 102.875H141.587C142.952 102.875 144.27 102.562 145.541 101.938C146.811 101.312 147.91 100.474 148.837 99.4219C149.765 98.3698 150.504 97.1146 151.056 95.6562C151.619 94.1875 151.9 92.6562 151.9 91.0625C151.9 89.4688 151.619 87.9427 151.056 86.4844C150.504 85.026 149.765 83.7708 148.837 82.7188C147.91 81.6562 146.811 80.8125 145.541 80.1875C144.27 79.5625 142.952 79.25 141.587 79.25H128.291V102.875ZM141.587 104H127.166V78.125H141.587C143.619 78.125 145.515 78.7031 147.275 79.8594C149.035 81.0156 150.436 82.5885 151.478 84.5781C152.53 86.5677 153.056 88.7292 153.056 91.0625C153.056 92.8125 152.744 94.4896 152.119 96.0938C151.504 97.6875 150.681 99.0625 149.65 100.219C148.619 101.375 147.395 102.297 145.978 102.984C144.572 103.661 143.108 104 141.587 104ZM167.566 104H166.441V78.125H167.566V104ZM165.316 104H164.191V78.125H165.316V104ZM163.066 104H161.941V78.125H163.066V104ZM169.816 98.375H181.784V99.5H169.816V100.625H181.784V101.75H169.816V102.875H181.784V104H168.691V78.125H181.784V79.25H169.816V80.375H181.784V81.5H169.816V82.625H181.784V83.75H169.816V88.25H175.956V89.375H169.816V90.5H175.956V91.625H169.816V92.75H175.956V93.875H169.816V98.375ZM200.584 99.5V98.375H215.834V99.5H200.584ZM200.584 101.75V100.625H215.834V101.75H200.584ZM200.584 104V102.875H215.834V104H200.584ZM202.319 97.75H201.006C201.735 96.7604 202.454 95.7917 203.162 94.8438C203.871 93.8958 204.459 93.1094 204.928 92.4844C205.407 91.849 205.871 91.2292 206.319 90.625C206.767 90.0208 207.126 89.5365 207.397 89.1719C207.678 88.8073 207.944 88.4531 208.194 88.1094C208.444 87.7656 208.631 87.5 208.756 87.3125C208.881 87.1146 208.991 86.9271 209.084 86.75C209.189 86.5729 209.256 86.4323 209.287 86.3281C209.319 86.2135 209.334 86.1042 209.334 86C209.334 85.5208 209.136 85.2135 208.741 85.0781C208.345 84.9427 207.647 84.875 206.647 84.875C205.022 84.875 203.397 85.0885 201.772 85.5156L201.537 84.4375C201.798 84.3229 202.454 84.1771 203.506 84C204.569 83.8125 205.59 83.7188 206.569 83.7188C207.162 83.7188 207.678 83.7552 208.116 83.8281C208.553 83.8906 208.949 84.0052 209.303 84.1719C209.668 84.3281 209.944 84.5625 210.131 84.875C210.319 85.1771 210.412 85.5521 210.412 86C210.412 86.4479 210.183 87.0208 209.725 87.7188C209.267 88.4167 208.09 90.0312 206.194 92.5625C204.652 94.6146 203.36 96.3438 202.319 97.75ZM204.866 97.75H203.553C207.439 92.5208 209.595 89.599 210.022 88.9844C210.897 87.7344 211.386 86.8438 211.491 86.3125C211.522 86.1667 211.537 86.0104 211.537 85.8438C211.537 83.6875 209.902 82.6094 206.631 82.6094C205.631 82.6094 204.616 82.6979 203.584 82.875C202.553 83.0521 201.798 83.2292 201.319 83.4062L201.1 82.3281C202.881 81.776 204.73 81.5 206.647 81.5C207.314 81.5 207.928 81.5469 208.491 81.6406C209.064 81.724 209.61 81.8698 210.131 82.0781C210.652 82.2865 211.095 82.5573 211.459 82.8906C211.824 83.2135 212.11 83.625 212.319 84.125C212.537 84.625 212.647 85.1979 212.647 85.8438C212.647 86.5104 212.319 87.349 211.662 88.3594C211.006 89.3698 209.043 92.0885 205.772 96.5156C205.376 97.0469 205.074 97.4583 204.866 97.75ZM207.475 97.75H206.162C209.715 92.8958 211.871 89.875 212.631 88.6875C213.392 87.4896 213.772 86.4896 213.772 85.6875C213.772 84.7083 213.579 83.8646 213.194 83.1562C212.819 82.4479 212.287 81.8958 211.6 81.5C210.923 81.1042 210.173 80.8177 209.35 80.6406C208.537 80.4635 207.631 80.375 206.631 80.375C204.704 80.375 202.782 80.6667 200.866 81.25L200.631 80.1094C202.683 79.5052 204.668 79.2031 206.584 79.2031C207.522 79.2031 208.392 79.2708 209.194 79.4062C209.996 79.5417 210.751 79.7708 211.459 80.0938C212.178 80.4062 212.782 80.8073 213.272 81.2969C213.772 81.7865 214.168 82.4062 214.459 83.1562C214.751 83.8958 214.897 84.7396 214.897 85.6875C214.897 86.3646 214.735 87.0573 214.412 87.7656C214.1 88.4635 213.444 89.5312 212.444 90.9688C211.454 92.4062 209.798 94.6667 207.475 97.75ZM210.178 97.75H208.866C211.064 94.8438 212.652 92.6615 213.631 91.2031C214.621 89.7344 215.267 88.625 215.569 87.875C215.871 87.1146 216.022 86.3333 216.022 85.5312C216.022 84.5104 215.866 83.5885 215.553 82.7656C215.251 81.9323 214.819 81.2344 214.256 80.6719C213.704 80.099 213.037 79.6198 212.256 79.2344C211.475 78.849 210.616 78.5677 209.678 78.3906C208.751 78.2135 207.746 78.125 206.662 78.125C204.662 78.125 202.579 78.4375 200.412 79.0625L200.178 77.9531C202.376 77.3177 204.527 77 206.631 77C208.194 77 209.605 77.1719 210.866 77.5156C212.136 77.849 213.241 78.3542 214.178 79.0312C215.126 79.7083 215.855 80.599 216.366 81.7031C216.886 82.8073 217.147 84.0833 217.147 85.5312C217.147 86.4479 216.996 87.3125 216.694 88.125C216.402 88.9375 215.756 90.0885 214.756 91.5781C213.767 93.0677 212.241 95.125 210.178 97.75ZM227.078 98.4062C225.995 96.2604 225.453 93.8125 225.453 91.0625C225.453 88.3125 225.995 85.8646 227.078 83.7188C228.161 81.5729 229.651 79.9167 231.547 78.75C233.443 77.5833 235.578 77 237.953 77C240.328 77 242.464 77.5833 244.359 78.75C246.255 79.9167 247.745 81.5729 248.828 83.7188C249.911 85.8646 250.453 88.3125 250.453 91.0625C250.453 93.8125 249.911 96.2604 248.828 98.4062C247.745 100.552 246.255 102.208 244.359 103.375C242.464 104.542 240.328 105.125 237.953 105.125C235.578 105.125 233.443 104.542 231.547 103.375C229.651 102.208 228.161 100.552 227.078 98.4062ZM242.141 85.6875C243.182 86.9688 243.703 88.7604 243.703 91.0625C243.703 93.3646 243.182 95.1615 242.141 96.4531C241.109 97.7344 239.714 98.375 237.953 98.375C236.193 98.375 234.792 97.7344 233.75 96.4531C232.719 95.1615 232.203 93.3646 232.203 91.0625C232.203 88.7604 232.719 86.9688 233.75 85.6875C234.792 84.3958 236.193 83.75 237.953 83.75C239.714 83.75 241.109 84.3958 242.141 85.6875ZM243.734 84.0938C245.214 85.8229 245.953 88.1458 245.953 91.0625C245.953 93.9792 245.214 96.3021 243.734 98.0312C242.266 99.7604 240.339 100.625 237.953 100.625C235.568 100.625 233.635 99.7604 232.156 98.0312C230.688 96.3021 229.953 93.9792 229.953 91.0625C229.953 88.1458 230.688 85.8229 232.156 84.0938C233.635 82.3646 235.568 81.5 237.953 81.5C240.339 81.5 242.266 82.3646 243.734 84.0938ZM246.875 84.8594C247.76 86.651 248.203 88.7188 248.203 91.0625C248.203 93.4062 247.76 95.4792 246.875 97.2812C246 99.0729 244.786 100.453 243.234 101.422C241.682 102.391 239.922 102.875 237.953 102.875C235.984 102.875 234.224 102.391 232.672 101.422C231.12 100.453 229.901 99.0729 229.016 97.2812C228.141 95.4792 227.703 93.4062 227.703 91.0625C227.703 88.7188 228.141 86.651 229.016 84.8594C229.901 83.0573 231.12 81.6719 232.672 80.7031C234.224 79.7344 235.984 79.25 237.953 79.25C239.922 79.25 241.682 79.7344 243.234 80.7031C244.786 81.6719 246 83.0573 246.875 84.8594ZM234.547 86.4688C233.734 87.5312 233.328 89.0625 233.328 91.0625C233.328 93.0625 233.734 94.5938 234.547 95.6562C235.37 96.7188 236.505 97.25 237.953 97.25C239.401 97.25 240.531 96.7188 241.344 95.6562C242.167 94.5938 242.578 93.0625 242.578 91.0625C242.578 89.0625 242.167 87.5312 241.344 86.4688C240.531 85.4062 239.401 84.875 237.953 84.875C236.505 84.875 235.37 85.4062 234.547 86.4688ZM232.953 84.8906C231.703 86.3906 231.078 88.4479 231.078 91.0625C231.078 93.6771 231.703 95.7396 232.953 97.25C234.214 98.75 235.88 99.5 237.953 99.5C240.026 99.5 241.688 98.75 242.938 97.25C244.198 95.7396 244.828 93.6771 244.828 91.0625C244.828 88.4479 244.198 86.3906 242.938 84.8906C241.688 83.3802 240.026 82.625 237.953 82.625C235.88 82.625 234.214 83.3802 232.953 84.8906ZM231.359 83.2969C229.672 85.2448 228.828 87.8333 228.828 91.0625C228.828 94.2917 229.672 96.8802 231.359 98.8281C233.057 100.776 235.255 101.75 237.953 101.75C240.651 101.75 242.844 100.776 244.531 98.8281C246.229 96.8802 247.078 94.2917 247.078 91.0625C247.078 87.8333 246.229 85.2448 244.531 83.2969C242.844 81.349 240.651 80.375 237.953 80.375C235.255 80.375 233.057 81.349 231.359 83.2969ZM227.438 85.7812C226.865 87.3958 226.578 89.1562 226.578 91.0625C226.578 92.9688 226.865 94.7344 227.438 96.3594C228.01 97.974 228.797 99.3385 229.797 100.453C230.807 101.568 232.01 102.438 233.406 103.062C234.812 103.688 236.328 104 237.953 104C239.578 104 241.089 103.688 242.484 103.062C243.891 102.438 245.094 101.568 246.094 100.453C247.104 99.3385 247.896 97.974 248.469 96.3594C249.042 94.7344 249.328 92.9688 249.328 91.0625C249.328 89.1562 249.042 87.3958 248.469 85.7812C247.896 84.1562 247.104 82.7865 246.094 81.6719C245.094 80.5573 243.891 79.6875 242.484 79.0625C241.089 78.4375 239.578 78.125 237.953 78.125C236.328 78.125 234.812 78.4375 233.406 79.0625C232.01 79.6875 230.807 80.5573 229.797 81.6719C228.797 82.7865 228.01 84.1562 227.438 85.7812ZM259.041 99.5V98.375H274.291V99.5H259.041ZM259.041 101.75V100.625H274.291V101.75H259.041ZM259.041 104V102.875H274.291V104H259.041ZM260.775 97.75H259.462C260.192 96.7604 260.91 95.7917 261.619 94.8438C262.327 93.8958 262.916 93.1094 263.384 92.4844C263.864 91.849 264.327 91.2292 264.775 90.625C265.223 90.0208 265.582 89.5365 265.853 89.1719C266.134 88.8073 266.4 88.4531 266.65 88.1094C266.9 87.7656 267.087 87.5 267.212 87.3125C267.337 87.1146 267.447 86.9271 267.541 86.75C267.645 86.5729 267.712 86.4323 267.744 86.3281C267.775 86.2135 267.791 86.1042 267.791 86C267.791 85.5208 267.593 85.2135 267.197 85.0781C266.801 84.9427 266.103 84.875 265.103 84.875C263.478 84.875 261.853 85.0885 260.228 85.5156L259.994 84.4375C260.254 84.3229 260.91 84.1771 261.962 84C263.025 83.8125 264.046 83.7188 265.025 83.7188C265.619 83.7188 266.134 83.7552 266.572 83.8281C267.009 83.8906 267.405 84.0052 267.759 84.1719C268.124 84.3281 268.4 84.5625 268.587 84.875C268.775 85.1771 268.869 85.5521 268.869 86C268.869 86.4479 268.64 87.0208 268.181 87.7188C267.723 88.4167 266.546 90.0312 264.65 92.5625C263.108 94.6146 261.817 96.3438 260.775 97.75ZM263.322 97.75H262.009C265.895 92.5208 268.051 89.599 268.478 88.9844C269.353 87.7344 269.843 86.8438 269.947 86.3125C269.978 86.1667 269.994 86.0104 269.994 85.8438C269.994 83.6875 268.358 82.6094 265.087 82.6094C264.087 82.6094 263.072 82.6979 262.041 82.875C261.009 83.0521 260.254 83.2292 259.775 83.4062L259.556 82.3281C261.337 81.776 263.186 81.5 265.103 81.5C265.77 81.5 266.384 81.5469 266.947 81.6406C267.52 81.724 268.067 81.8698 268.587 82.0781C269.108 82.2865 269.551 82.5573 269.916 82.8906C270.28 83.2135 270.567 83.625 270.775 84.125C270.994 84.625 271.103 85.1979 271.103 85.8438C271.103 86.5104 270.775 87.349 270.119 88.3594C269.462 89.3698 267.499 92.0885 264.228 96.5156C263.832 97.0469 263.53 97.4583 263.322 97.75ZM265.931 97.75H264.619C268.171 92.8958 270.327 89.875 271.087 88.6875C271.848 87.4896 272.228 86.4896 272.228 85.6875C272.228 84.7083 272.035 83.8646 271.65 83.1562C271.275 82.4479 270.744 81.8958 270.056 81.5C269.379 81.1042 268.629 80.8177 267.806 80.6406C266.994 80.4635 266.087 80.375 265.087 80.375C263.16 80.375 261.239 80.6667 259.322 81.25L259.087 80.1094C261.14 79.5052 263.124 79.2031 265.041 79.2031C265.978 79.2031 266.848 79.2708 267.65 79.4062C268.452 79.5417 269.207 79.7708 269.916 80.0938C270.634 80.4062 271.239 80.8073 271.728 81.2969C272.228 81.7865 272.624 82.4062 272.916 83.1562C273.207 83.8958 273.353 84.7396 273.353 85.6875C273.353 86.3646 273.192 87.0573 272.869 87.7656C272.556 88.4635 271.9 89.5312 270.9 90.9688C269.91 92.4062 268.254 94.6667 265.931 97.75ZM268.634 97.75H267.322C269.52 94.8438 271.108 92.6615 272.087 91.2031C273.077 89.7344 273.723 88.625 274.025 87.875C274.327 87.1146 274.478 86.3333 274.478 85.5312C274.478 84.5104 274.322 83.5885 274.009 82.7656C273.707 81.9323 273.275 81.2344 272.712 80.6719C272.16 80.099 271.494 79.6198 270.712 79.2344C269.931 78.849 269.072 78.5677 268.134 78.3906C267.207 78.2135 266.202 78.125 265.119 78.125C263.119 78.125 261.035 78.4375 258.869 79.0625L258.634 77.9531C260.832 77.3177 262.983 77 265.087 77C266.65 77 268.061 77.1719 269.322 77.5156C270.593 77.849 271.697 78.3542 272.634 79.0312C273.582 79.7083 274.311 80.599 274.822 81.7031C275.343 82.8073 275.603 84.0833 275.603 85.5312C275.603 86.4479 275.452 87.3125 275.15 88.125C274.858 88.9375 274.212 90.0885 273.212 91.5781C272.223 93.0677 270.697 95.125 268.634 97.75ZM284.097 99.5V98.375H299.347V99.5H284.097ZM284.097 101.75V100.625H299.347V101.75H284.097ZM284.097 104V102.875H299.347V104H284.097ZM285.831 97.75H284.519C285.248 96.7604 285.967 95.7917 286.675 94.8438C287.383 93.8958 287.972 93.1094 288.441 92.4844C288.92 91.849 289.383 91.2292 289.831 90.625C290.279 90.0208 290.639 89.5365 290.909 89.1719C291.191 88.8073 291.456 88.4531 291.706 88.1094C291.956 87.7656 292.144 87.5 292.269 87.3125C292.394 87.1146 292.503 86.9271 292.597 86.75C292.701 86.5729 292.769 86.4323 292.8 86.3281C292.831 86.2135 292.847 86.1042 292.847 86C292.847 85.5208 292.649 85.2135 292.253 85.0781C291.857 84.9427 291.159 84.875 290.159 84.875C288.534 84.875 286.909 85.0885 285.284 85.5156L285.05 84.4375C285.31 84.3229 285.967 84.1771 287.019 84C288.081 83.8125 289.102 83.7188 290.081 83.7188C290.675 83.7188 291.191 83.7552 291.628 83.8281C292.066 83.8906 292.461 84.0052 292.816 84.1719C293.18 84.3281 293.456 84.5625 293.644 84.875C293.831 85.1771 293.925 85.5521 293.925 86C293.925 86.4479 293.696 87.0208 293.238 87.7188C292.779 88.4167 291.602 90.0312 289.706 92.5625C288.165 94.6146 286.873 96.3438 285.831 97.75ZM288.378 97.75H287.066C290.951 92.5208 293.107 89.599 293.534 88.9844C294.409 87.7344 294.899 86.8438 295.003 86.3125C295.034 86.1667 295.05 86.0104 295.05 85.8438C295.05 83.6875 293.415 82.6094 290.144 82.6094C289.144 82.6094 288.128 82.6979 287.097 82.875C286.066 83.0521 285.31 83.2292 284.831 83.4062L284.613 82.3281C286.394 81.776 288.243 81.5 290.159 81.5C290.826 81.5 291.441 81.5469 292.003 81.6406C292.576 81.724 293.123 81.8698 293.644 82.0781C294.165 82.2865 294.607 82.5573 294.972 82.8906C295.336 83.2135 295.623 83.625 295.831 84.125C296.05 84.625 296.159 85.1979 296.159 85.8438C296.159 86.5104 295.831 87.349 295.175 88.3594C294.519 89.3698 292.555 92.0885 289.284 96.5156C288.889 97.0469 288.586 97.4583 288.378 97.75ZM290.988 97.75H289.675C293.227 92.8958 295.383 89.875 296.144 88.6875C296.904 87.4896 297.284 86.4896 297.284 85.6875C297.284 84.7083 297.092 83.8646 296.706 83.1562C296.331 82.4479 295.8 81.8958 295.113 81.5C294.435 81.1042 293.685 80.8177 292.863 80.6406C292.05 80.4635 291.144 80.375 290.144 80.375C288.217 80.375 286.295 80.6667 284.378 81.25L284.144 80.1094C286.196 79.5052 288.18 79.2031 290.097 79.2031C291.034 79.2031 291.904 79.2708 292.706 79.4062C293.508 79.5417 294.264 79.7708 294.972 80.0938C295.691 80.4062 296.295 80.8073 296.784 81.2969C297.284 81.7865 297.68 82.4062 297.972 83.1562C298.264 83.8958 298.409 84.7396 298.409 85.6875C298.409 86.3646 298.248 87.0573 297.925 87.7656C297.613 88.4635 296.956 89.5312 295.956 90.9688C294.967 92.4062 293.31 94.6667 290.988 97.75ZM293.691 97.75H292.378C294.576 94.8438 296.165 92.6615 297.144 91.2031C298.133 89.7344 298.779 88.625 299.081 87.875C299.383 87.1146 299.534 86.3333 299.534 85.5312C299.534 84.5104 299.378 83.5885 299.066 82.7656C298.764 81.9323 298.331 81.2344 297.769 80.6719C297.217 80.099 296.55 79.6198 295.769 79.2344C294.988 78.849 294.128 78.5677 293.191 78.3906C292.264 78.2135 291.258 78.125 290.175 78.125C288.175 78.125 286.092 78.4375 283.925 79.0625L283.691 77.9531C285.889 77.3177 288.04 77 290.144 77C291.706 77 293.118 77.1719 294.378 77.5156C295.649 77.849 296.753 78.3542 297.691 79.0312C298.639 79.7083 299.368 80.599 299.878 81.7031C300.399 82.8073 300.659 84.0833 300.659 85.5312C300.659 86.4479 300.508 87.3125 300.206 88.125C299.915 88.9375 299.269 90.0885 298.269 91.5781C297.279 93.0677 295.753 95.125 293.691 97.75Z" fill="url(#paint1_linear_357_1989)"/>
<rect width="375" height="4" fill="#FF1909"/>
<rect y="4" width="375" height="4" fill="#FF7600"/>
<rect y="8" width="375" height="4" fill="#FFDC0E"/>
<rect y="12" width="375" height="4" fill="#00B64B"/>
<rect y="16" width="375" height="4" fill="#0095D7"/>
<rect y="20" width="375" height="4" fill="#9822D3"/>
</g>
<defs>
<linearGradient id="paint0_linear_357_1989" x1="5.7006" y1="51.3333" x2="335.545" y2="51.3334" gradientUnits="userSpaceOnUse">
<stop stop-color="#FC1A0A"/>
<stop offset="0.177083" stop-color="#F67714"/>
<stop offset="0.390625" stop-color="#FCDD12"/>
<stop offset="0.59375" stop-color="#02B34D"/>
<stop offset="0.791667" stop-color="#0095D7"/>
<stop offset="1" stop-color="#9522D5"/>
</linearGradient>
<linearGradient id="paint1_linear_357_1989" x1="23.8084" y1="92.8889" x2="317.629" y2="92.8889" gradientUnits="userSpaceOnUse">
<stop stop-color="#FC1A0A"/>
<stop offset="0.177083" stop-color="#F67714"/>
<stop offset="0.390625" stop-color="#FCDD12"/>
<stop offset="0.59375" stop-color="#02B34D"/>
<stop offset="0.791667" stop-color="#0095D7"/>
<stop offset="1" stop-color="#9522D5"/>
</linearGradient>
<clipPath id="clip0_357_1989">
<rect width="343" height="140" rx="8" fill="white"/>
</clipPath>
</defs>
</svg>
