<svg width="194" height="22" viewBox="0 0 194 22" fill="none" xmlns="http://www.w3.org/2000/svg">
<path d="M7.11485 11.8125H12.0133C12.818 11.8125 13.4977 11.543 14.0523 11.0039C14.6148 10.457 14.8961 9.6875 14.8961 8.69531C14.8961 7.95312 14.6031 7.28906 14.0172 6.70312C13.4313 6.10938 12.7633 5.8125 12.0133 5.8125H4.7711V21H3.92735V4.96875H12.0133C12.9977 4.96875 13.8648 5.34766 14.6148 6.10547C15.3648 6.86328 15.7398 7.72656 15.7398 8.69531C15.7398 9.89062 15.3766 10.8516 14.65 11.5781C13.9234 12.2969 13.0445 12.6562 12.0133 12.6562H7.11485V11.8125ZM7.11485 13.5H12.0133C12.8258 13.5 13.5758 13.3047 14.2633 12.9141C14.9586 12.5156 15.5172 11.9453 15.9391 11.2031C16.3688 10.4609 16.5836 9.625 16.5836 8.69531C16.5836 7.49219 16.1227 6.42969 15.2008 5.50781C14.2867 4.58594 13.2242 4.125 12.0133 4.125H3.0836V21H2.23985V3.28125H12.0133C12.9586 3.28125 13.8492 3.53125 14.6852 4.03125C15.5211 4.53125 16.1852 5.19922 16.6773 6.03516C17.1773 6.87109 17.4273 7.75781 17.4273 8.69531C17.4273 9.75781 17.1773 10.7266 16.6773 11.6016C16.1773 12.4688 15.5133 13.1445 14.6852 13.6289C13.8648 14.1055 12.9742 14.3438 12.0133 14.3438H7.11485V13.5ZM7.11485 15.1875H12.0133C12.8492 15.1875 13.65 15.0234 14.4156 14.6953C15.1813 14.3594 15.8453 13.9102 16.4078 13.3477C16.9781 12.7773 17.4313 12.0898 17.7672 11.2852C18.1031 10.4727 18.2711 9.60938 18.2711 8.69531C18.2711 7.60156 17.9859 6.57422 17.4156 5.61328C16.8453 4.64453 16.0758 3.875 15.107 3.30469C14.1461 2.72656 13.1148 2.4375 12.0133 2.4375H1.3961V21H0.552345V1.59375H12.0133C13.2633 1.59375 14.4352 1.92188 15.5289 2.57812C16.6227 3.22656 17.4938 4.09766 18.1422 5.19141C18.7906 6.28516 19.1148 7.45312 19.1148 8.69531C19.1148 9.80469 18.9234 10.8281 18.5406 11.7656C18.1578 12.6953 17.6422 13.4688 16.9938 14.0859C16.3453 14.7031 15.5914 15.1836 14.732 15.5273C13.8727 15.8633 12.9664 16.0312 12.0133 16.0312H7.11485V15.1875ZM6.4586 21H5.61485V6.65625H12.0133C12.568 6.65625 13.0445 6.85938 13.443 7.26562C13.8492 7.67188 14.0523 8.14844 14.0523 8.69531C14.0523 10.2109 13.3727 10.9688 12.0133 10.9688H7.11485V10.125H12.0133C12.3883 10.125 12.6813 10.0195 12.8922 9.80859C13.1031 9.59766 13.2086 9.22656 13.2086 8.69531C13.2086 8.35156 13.0914 8.06641 12.857 7.83984C12.6305 7.61328 12.3492 7.5 12.0133 7.5H6.4586V21ZM32.1414 11.3438H37.2273C38.0008 11.3438 38.6531 11.0938 39.1844 10.5938C39.7234 10.0938 39.993 9.38281 39.993 8.46094C39.993 7.78125 39.7117 7.17188 39.1492 6.63281C38.5867 6.08594 37.9461 5.8125 37.2273 5.8125H29.9852V21H29.1414V4.96875H37.2273C38.1805 4.96875 39.0203 5.32422 39.7469 6.03516C40.4734 6.73828 40.8367 7.54688 40.8367 8.46094C40.8367 9.58594 40.4852 10.4883 39.782 11.168C39.0789 11.8477 38.2273 12.1875 37.2273 12.1875H32.1414V11.3438ZM32.1414 13.0312H37.2273C38.4461 13.0312 39.493 12.6055 40.368 11.7539C41.243 10.8945 41.6805 9.79688 41.6805 8.46094C41.6805 7.3125 41.2313 6.30469 40.3328 5.4375C39.4422 4.5625 38.407 4.125 37.2273 4.125H28.2977V21H27.4539V3.28125H37.2273C38.157 3.28125 39.0281 3.51953 39.8406 3.99609C40.6609 4.47266 41.3133 5.11328 41.7977 5.91797C42.282 6.71484 42.5242 7.5625 42.5242 8.46094C42.5242 10 42.0008 11.2891 40.9539 12.3281C39.9148 13.3594 38.6727 13.875 37.2273 13.875H32.1414V13.0312ZM32.1414 14.7188H37.2273C38.3211 14.7188 39.3367 14.4492 40.2742 13.9102C41.2117 13.3711 41.9617 12.6211 42.5242 11.6602C43.0867 10.6914 43.368 9.625 43.368 8.46094C43.368 7.40625 43.0867 6.41797 42.5242 5.49609C41.9695 4.56641 41.2195 3.82422 40.2742 3.26953C39.3289 2.71484 38.3133 2.4375 37.2273 2.4375H26.6102V21H25.7664V1.59375H37.2273C38.4539 1.59375 39.6063 1.91016 40.6844 2.54297C41.7625 3.16797 42.618 4.01172 43.2508 5.07422C43.8914 6.12891 44.2117 7.25781 44.2117 8.46094C44.2117 9.85156 43.9109 11.0742 43.3094 12.1289C42.7156 13.1836 41.907 14.0078 40.8836 14.6016L43.0633 21H42.1727L40.0867 15C39.7742 15.125 39.5359 15.2109 39.3719 15.2578L41.3289 21H40.4383L38.5281 15.457C38.4578 15.4727 38.2078 15.5 37.7781 15.5391L39.5945 21H38.7039L36.9109 15.5625H36.1492L37.8602 21H36.9695L35.2469 15.5625H32.1414V14.7188ZM31.6727 21H30.8289V6.65625H37.2273C37.7508 6.65625 38.2 6.83594 38.575 7.19531C38.9578 7.54688 39.1492 7.96875 39.1492 8.46094C39.1492 9.82031 38.5086 10.5 37.2273 10.5H32.1414V9.65625H37.2273C37.5633 9.65625 37.825 9.57031 38.0125 9.39844C38.2078 9.21875 38.3055 8.90625 38.3055 8.46094C38.3055 8.1875 38.2 7.96094 37.9891 7.78125C37.7859 7.59375 37.532 7.5 37.2273 7.5H31.6727V21ZM55.8789 1.59375H56.7227V21H55.8789V1.59375ZM54.1914 1.59375H55.0352V21H54.1914V1.59375ZM52.5039 1.59375H53.3477V21H52.5039V1.59375ZM50.8164 1.59375H51.6602V21H50.8164V1.59375ZM68.8117 15.9375V6.65625C68.8117 6.65625 70.7297 6.65625 74.5656 6.65625C75.4953 6.65625 76.2922 7.11328 76.9563 8.02734C77.6281 8.93359 77.9641 10.0234 77.9641 11.2969C77.9641 12.5781 77.6281 13.6719 76.9563 14.5781C76.2922 15.4844 75.4953 15.9375 74.5656 15.9375H68.8117ZM69.6555 15.0938H74.5656C75.2609 15.0938 75.8547 14.7227 76.3469 13.9805C76.8469 13.2383 77.0969 12.3438 77.0969 11.2969C77.0969 10.2422 76.8469 9.34766 76.3469 8.61328C75.8547 7.87109 75.2609 7.5 74.5656 7.5H69.6555V15.0938ZM67.968 16.7812H74.5656C75.7297 16.7812 76.7297 16.2461 77.5656 15.1758C78.4094 14.0977 78.8313 12.8047 78.8313 11.2969C78.8313 10.3047 78.6359 9.38672 78.2453 8.54297C77.8625 7.69922 77.343 7.03516 76.6867 6.55078C76.0383 6.05859 75.3313 5.8125 74.5656 5.8125H67.968V16.7812ZM67.1242 17.625V4.96875H74.5656C75.4797 4.96875 76.3313 5.25 77.1203 5.8125C77.9094 6.375 78.5344 7.14453 78.9953 8.12109C79.4641 9.08984 79.6984 10.1484 79.6984 11.2969C79.6984 12.4375 79.4641 13.4961 78.9953 14.4727C78.5344 15.4492 77.9094 16.2188 77.1203 16.7812C76.3313 17.3438 75.4797 17.625 74.5656 17.625H67.1242ZM66.2805 18.4688H74.5656C75.6359 18.4688 76.6281 18.1484 77.5422 17.5078C78.4641 16.8672 79.1984 15.9961 79.7453 14.8945C80.2922 13.793 80.5656 12.5938 80.5656 11.2969C80.5656 10.0078 80.2922 8.8125 79.7453 7.71094C79.1984 6.60156 78.4641 5.72656 77.5422 5.08594C76.6203 4.44531 75.6281 4.125 74.5656 4.125H66.2805V18.4688ZM65.4367 19.3125V3.28125H74.5656C75.7844 3.28125 76.9211 3.64062 77.9758 4.35938C79.0305 5.07031 79.8703 6.04297 80.4953 7.27734C81.1203 8.51172 81.4328 9.85156 81.4328 11.2969C81.4328 12.7422 81.1203 14.082 80.4953 15.3164C79.8703 16.5508 79.0305 17.5273 77.9758 18.2461C76.9211 18.957 75.7844 19.3125 74.5656 19.3125H65.4367ZM64.593 20.1562H74.5656C75.5891 20.1562 76.5773 19.9219 77.5305 19.4531C78.4836 18.9844 79.3078 18.3555 80.0031 17.5664C80.6984 16.7773 81.2531 15.8359 81.6672 14.7422C82.0891 13.6406 82.3 12.4922 82.3 11.2969C82.3 10.1016 82.0891 8.95703 81.6672 7.86328C81.2531 6.76953 80.6984 5.82812 80.0031 5.03906C79.3078 4.24219 78.4836 3.60938 77.5305 3.14062C76.5773 2.67188 75.5891 2.4375 74.5656 2.4375H64.593V20.1562ZM74.5656 21H63.7492V1.59375H74.5656C76.0891 1.59375 77.5109 2.02734 78.8313 2.89453C80.1516 3.76172 81.2023 4.94141 81.9836 6.43359C82.7727 7.92578 83.1672 9.54688 83.1672 11.2969C83.1672 12.6094 82.9328 13.8672 82.4641 15.0703C82.0031 16.2656 81.3859 17.2969 80.6125 18.1641C79.8391 19.0312 78.9211 19.7227 77.8586 20.2383C76.8039 20.7461 75.7063 21 74.5656 21ZM94.0492 21H93.2055V1.59375H94.0492V21ZM92.3617 21H91.518V1.59375H92.3617V21ZM90.6742 21H89.8305V1.59375H90.6742V21ZM95.7367 16.7812H104.713V17.625H95.7367V18.4688H104.713V19.3125H95.7367V20.1562H104.713V21H94.893V1.59375H104.713V2.4375H95.7367V3.28125H104.713V4.125H95.7367V4.96875H104.713V5.8125H95.7367V9.1875H100.342V10.0312H95.7367V10.875H100.342V11.7188H95.7367V12.5625H100.342V13.4062H95.7367V16.7812ZM118.813 17.625V16.7812H130.251V17.625H118.813ZM118.813 19.3125V18.4688H130.251V19.3125H118.813ZM118.813 21V20.1562H130.251V21H118.813ZM120.114 16.3125H119.13C119.677 15.5703 120.216 14.8438 120.747 14.1328C121.278 13.4219 121.72 12.832 122.071 12.3633C122.43 11.8867 122.778 11.4219 123.114 10.9688C123.45 10.5156 123.72 10.1523 123.923 9.87891C124.134 9.60547 124.333 9.33984 124.52 9.08203C124.708 8.82422 124.848 8.625 124.942 8.48438C125.036 8.33594 125.118 8.19531 125.188 8.0625C125.266 7.92969 125.317 7.82422 125.341 7.74609C125.364 7.66016 125.376 7.57812 125.376 7.5C125.376 7.14062 125.227 6.91016 124.93 6.80859C124.634 6.70703 124.11 6.65625 123.36 6.65625C122.141 6.65625 120.923 6.81641 119.704 7.13672L119.528 6.32812C119.723 6.24219 120.216 6.13281 121.005 6C121.802 5.85938 122.567 5.78906 123.302 5.78906C123.747 5.78906 124.134 5.81641 124.462 5.87109C124.79 5.91797 125.087 6.00391 125.352 6.12891C125.626 6.24609 125.833 6.42188 125.973 6.65625C126.114 6.88281 126.184 7.16406 126.184 7.5C126.184 7.83594 126.013 8.26562 125.669 8.78906C125.325 9.3125 124.442 10.5234 123.02 12.4219C121.864 13.9609 120.895 15.2578 120.114 16.3125ZM122.024 16.3125H121.04C123.954 12.3906 125.571 10.1992 125.891 9.73828C126.548 8.80078 126.915 8.13281 126.993 7.73438C127.016 7.625 127.028 7.50781 127.028 7.38281C127.028 5.76562 125.802 4.95703 123.348 4.95703C122.598 4.95703 121.837 5.02344 121.063 5.15625C120.29 5.28906 119.723 5.42188 119.364 5.55469L119.2 4.74609C120.536 4.33203 121.923 4.125 123.36 4.125C123.86 4.125 124.321 4.16016 124.743 4.23047C125.173 4.29297 125.583 4.40234 125.973 4.55859C126.364 4.71484 126.696 4.91797 126.97 5.16797C127.243 5.41016 127.458 5.71875 127.614 6.09375C127.778 6.46875 127.86 6.89844 127.86 7.38281C127.86 7.88281 127.614 8.51172 127.122 9.26953C126.63 10.0273 125.157 12.0664 122.704 15.3867C122.407 15.7852 122.18 16.0938 122.024 16.3125ZM123.981 16.3125H122.997C125.661 12.6719 127.278 10.4062 127.848 9.51562C128.419 8.61719 128.704 7.86719 128.704 7.26562C128.704 6.53125 128.559 5.89844 128.27 5.36719C127.989 4.83594 127.591 4.42188 127.075 4.125C126.567 3.82812 126.005 3.61328 125.388 3.48047C124.778 3.34766 124.098 3.28125 123.348 3.28125C121.903 3.28125 120.462 3.5 119.024 3.9375L118.848 3.08203C120.388 2.62891 121.876 2.40234 123.313 2.40234C124.016 2.40234 124.669 2.45312 125.27 2.55469C125.872 2.65625 126.438 2.82812 126.97 3.07031C127.509 3.30469 127.962 3.60547 128.329 3.97266C128.704 4.33984 129.001 4.80469 129.22 5.36719C129.438 5.92188 129.548 6.55469 129.548 7.26562C129.548 7.77344 129.427 8.29297 129.184 8.82422C128.95 9.34766 128.458 10.1484 127.708 11.2266C126.966 12.3047 125.723 14 123.981 16.3125ZM126.009 16.3125H125.024C126.673 14.1328 127.864 12.4961 128.598 11.4023C129.341 10.3008 129.825 9.46875 130.052 8.90625C130.278 8.33594 130.391 7.75 130.391 7.14844C130.391 6.38281 130.274 5.69141 130.04 5.07422C129.813 4.44922 129.489 3.92578 129.067 3.50391C128.653 3.07422 128.153 2.71484 127.567 2.42578C126.981 2.13672 126.337 1.92578 125.634 1.79297C124.938 1.66016 124.184 1.59375 123.372 1.59375C121.872 1.59375 120.309 1.82812 118.684 2.29688L118.509 1.46484C120.157 0.988281 121.77 0.75 123.348 0.75C124.52 0.75 125.579 0.878906 126.524 1.13672C127.477 1.38672 128.305 1.76563 129.009 2.27344C129.72 2.78125 130.266 3.44922 130.649 4.27734C131.04 5.10547 131.235 6.0625 131.235 7.14844C131.235 7.83594 131.122 8.48438 130.895 9.09375C130.677 9.70312 130.192 10.5664 129.442 11.6836C128.7 12.8008 127.555 14.3438 126.009 16.3125ZM138.684 16.8047C137.871 15.1953 137.465 13.3594 137.465 11.2969C137.465 9.23438 137.871 7.39844 138.684 5.78906C139.496 4.17969 140.613 2.9375 142.035 2.0625C143.457 1.1875 145.059 0.75 146.84 0.75C148.621 0.75 150.223 1.1875 151.645 2.0625C153.066 2.9375 154.184 4.17969 154.996 5.78906C155.809 7.39844 156.215 9.23438 156.215 11.2969C156.215 13.3594 155.809 15.1953 154.996 16.8047C154.184 18.4141 153.066 19.6562 151.645 20.5312C150.223 21.4062 148.621 21.8438 146.84 21.8438C145.059 21.8438 143.457 21.4062 142.035 20.5312C140.613 19.6562 139.496 18.4141 138.684 16.8047ZM149.98 7.26562C150.762 8.22656 151.152 9.57031 151.152 11.2969C151.152 13.0234 150.762 14.3711 149.98 15.3398C149.207 16.3008 148.16 16.7812 146.84 16.7812C145.52 16.7812 144.469 16.3008 143.688 15.3398C142.914 14.3711 142.527 13.0234 142.527 11.2969C142.527 9.57031 142.914 8.22656 143.688 7.26562C144.469 6.29688 145.52 5.8125 146.84 5.8125C148.16 5.8125 149.207 6.29688 149.98 7.26562ZM151.176 6.07031C152.285 7.36719 152.84 9.10938 152.84 11.2969C152.84 13.4844 152.285 15.2266 151.176 16.5234C150.074 17.8203 148.629 18.4688 146.84 18.4688C145.051 18.4688 143.602 17.8203 142.492 16.5234C141.391 15.2266 140.84 13.4844 140.84 11.2969C140.84 9.10938 141.391 7.36719 142.492 6.07031C143.602 4.77344 145.051 4.125 146.84 4.125C148.629 4.125 150.074 4.77344 151.176 6.07031ZM153.531 6.64453C154.195 7.98828 154.527 9.53906 154.527 11.2969C154.527 13.0547 154.195 14.6094 153.531 15.9609C152.875 17.3047 151.965 18.3398 150.801 19.0664C149.637 19.793 148.316 20.1562 146.84 20.1562C145.363 20.1562 144.043 19.793 142.879 19.0664C141.715 18.3398 140.801 17.3047 140.137 15.9609C139.48 14.6094 139.152 13.0547 139.152 11.2969C139.152 9.53906 139.48 7.98828 140.137 6.64453C140.801 5.29297 141.715 4.25391 142.879 3.52734C144.043 2.80078 145.363 2.4375 146.84 2.4375C148.316 2.4375 149.637 2.80078 150.801 3.52734C151.965 4.25391 152.875 5.29297 153.531 6.64453ZM144.285 7.85156C143.676 8.64844 143.371 9.79688 143.371 11.2969C143.371 12.7969 143.676 13.9453 144.285 14.7422C144.902 15.5391 145.754 15.9375 146.84 15.9375C147.926 15.9375 148.773 15.5391 149.383 14.7422C150 13.9453 150.309 12.7969 150.309 11.2969C150.309 9.79688 150 8.64844 149.383 7.85156C148.773 7.05469 147.926 6.65625 146.84 6.65625C145.754 6.65625 144.902 7.05469 144.285 7.85156ZM143.09 6.66797C142.152 7.79297 141.684 9.33594 141.684 11.2969C141.684 13.2578 142.152 14.8047 143.09 15.9375C144.035 17.0625 145.285 17.625 146.84 17.625C148.395 17.625 149.641 17.0625 150.578 15.9375C151.523 14.8047 151.996 13.2578 151.996 11.2969C151.996 9.33594 151.523 7.79297 150.578 6.66797C149.641 5.53516 148.395 4.96875 146.84 4.96875C145.285 4.96875 144.035 5.53516 143.09 6.66797ZM141.895 5.47266C140.629 6.93359 139.996 8.875 139.996 11.2969C139.996 13.7188 140.629 15.6602 141.895 17.1211C143.168 18.582 144.816 19.3125 146.84 19.3125C148.863 19.3125 150.508 18.582 151.773 17.1211C153.047 15.6602 153.684 13.7188 153.684 11.2969C153.684 8.875 153.047 6.93359 151.773 5.47266C150.508 4.01172 148.863 3.28125 146.84 3.28125C144.816 3.28125 143.168 4.01172 141.895 5.47266ZM138.953 7.33594C138.523 8.54688 138.309 9.86719 138.309 11.2969C138.309 12.7266 138.523 14.0508 138.953 15.2695C139.383 16.4805 139.973 17.5039 140.723 18.3398C141.48 19.1758 142.383 19.8281 143.43 20.2969C144.484 20.7656 145.621 21 146.84 21C148.059 21 149.191 20.7656 150.238 20.2969C151.293 19.8281 152.195 19.1758 152.945 18.3398C153.703 17.5039 154.297 16.4805 154.727 15.2695C155.156 14.0508 155.371 12.7266 155.371 11.2969C155.371 9.86719 155.156 8.54688 154.727 7.33594C154.297 6.11719 153.703 5.08984 152.945 4.25391C152.195 3.41797 151.293 2.76562 150.238 2.29688C149.191 1.82812 148.059 1.59375 146.84 1.59375C145.621 1.59375 144.484 1.82812 143.43 2.29688C142.383 2.76562 141.48 3.41797 140.723 4.25391C139.973 5.08984 139.383 6.11719 138.953 7.33594ZM162.655 17.625V16.7812H174.093V17.625H162.655ZM162.655 19.3125V18.4688H174.093V19.3125H162.655ZM162.655 21V20.1562H174.093V21H162.655ZM163.956 16.3125H162.972C163.519 15.5703 164.058 14.8438 164.589 14.1328C165.12 13.4219 165.562 12.832 165.913 12.3633C166.273 11.8867 166.62 11.4219 166.956 10.9688C167.292 10.5156 167.562 10.1523 167.765 9.87891C167.976 9.60547 168.175 9.33984 168.362 9.08203C168.55 8.82422 168.691 8.625 168.784 8.48438C168.878 8.33594 168.96 8.19531 169.03 8.0625C169.109 7.92969 169.159 7.82422 169.183 7.74609C169.206 7.66016 169.218 7.57812 169.218 7.5C169.218 7.14062 169.07 6.91016 168.773 6.80859C168.476 6.70703 167.952 6.65625 167.202 6.65625C165.984 6.65625 164.765 6.81641 163.546 7.13672L163.37 6.32812C163.566 6.24219 164.058 6.13281 164.847 6C165.644 5.85938 166.409 5.78906 167.144 5.78906C167.589 5.78906 167.976 5.81641 168.304 5.87109C168.632 5.91797 168.929 6.00391 169.195 6.12891C169.468 6.24609 169.675 6.42188 169.816 6.65625C169.956 6.88281 170.027 7.16406 170.027 7.5C170.027 7.83594 169.855 8.26562 169.511 8.78906C169.167 9.3125 168.284 10.5234 166.862 12.4219C165.706 13.9609 164.737 15.2578 163.956 16.3125ZM165.866 16.3125H164.882C167.796 12.3906 169.413 10.1992 169.734 9.73828C170.39 8.80078 170.757 8.13281 170.835 7.73438C170.859 7.625 170.87 7.50781 170.87 7.38281C170.87 5.76562 169.644 4.95703 167.191 4.95703C166.441 4.95703 165.679 5.02344 164.905 5.15625C164.132 5.28906 163.566 5.42188 163.206 5.55469L163.042 4.74609C164.378 4.33203 165.765 4.125 167.202 4.125C167.702 4.125 168.163 4.16016 168.585 4.23047C169.015 4.29297 169.425 4.40234 169.816 4.55859C170.206 4.71484 170.538 4.91797 170.812 5.16797C171.085 5.41016 171.3 5.71875 171.456 6.09375C171.62 6.46875 171.702 6.89844 171.702 7.38281C171.702 7.88281 171.456 8.51172 170.964 9.26953C170.472 10.0273 168.999 12.0664 166.546 15.3867C166.249 15.7852 166.023 16.0938 165.866 16.3125ZM167.823 16.3125H166.839C169.503 12.6719 171.12 10.4062 171.691 9.51562C172.261 8.61719 172.546 7.86719 172.546 7.26562C172.546 6.53125 172.402 5.89844 172.112 5.36719C171.831 4.83594 171.433 4.42188 170.917 4.125C170.409 3.82812 169.847 3.61328 169.23 3.48047C168.62 3.34766 167.941 3.28125 167.191 3.28125C165.745 3.28125 164.304 3.5 162.866 3.9375L162.691 3.08203C164.23 2.62891 165.718 2.40234 167.155 2.40234C167.859 2.40234 168.511 2.45312 169.112 2.55469C169.714 2.65625 170.28 2.82812 170.812 3.07031C171.351 3.30469 171.804 3.60547 172.171 3.97266C172.546 4.33984 172.843 4.80469 173.062 5.36719C173.28 5.92188 173.39 6.55469 173.39 7.26562C173.39 7.77344 173.269 8.29297 173.027 8.82422C172.792 9.34766 172.3 10.1484 171.55 11.2266C170.808 12.3047 169.566 14 167.823 16.3125ZM169.851 16.3125H168.866C170.515 14.1328 171.706 12.4961 172.441 11.4023C173.183 10.3008 173.667 9.46875 173.894 8.90625C174.12 8.33594 174.234 7.75 174.234 7.14844C174.234 6.38281 174.116 5.69141 173.882 5.07422C173.655 4.44922 173.331 3.92578 172.909 3.50391C172.495 3.07422 171.995 2.71484 171.409 2.42578C170.823 2.13672 170.179 1.92578 169.476 1.79297C168.78 1.66016 168.027 1.59375 167.214 1.59375C165.714 1.59375 164.152 1.82812 162.527 2.29688L162.351 1.46484C163.999 0.988281 165.612 0.75 167.191 0.75C168.362 0.75 169.421 0.878906 170.366 1.13672C171.32 1.38672 172.148 1.76563 172.851 2.27344C173.562 2.78125 174.109 3.44922 174.491 4.27734C174.882 5.10547 175.077 6.0625 175.077 7.14844C175.077 7.83594 174.964 8.48438 174.737 9.09375C174.519 9.70312 174.034 10.5664 173.284 11.6836C172.542 12.8008 171.398 14.3438 169.851 16.3125ZM181.448 17.625V16.7812H192.885V17.625H181.448ZM181.448 19.3125V18.4688H192.885V19.3125H181.448ZM181.448 21V20.1562H192.885V21H181.448ZM182.748 16.3125H181.764C182.311 15.5703 182.85 14.8438 183.381 14.1328C183.913 13.4219 184.354 12.832 184.705 12.3633C185.065 11.8867 185.413 11.4219 185.748 10.9688C186.084 10.5156 186.354 10.1523 186.557 9.87891C186.768 9.60547 186.967 9.33984 187.155 9.08203C187.342 8.82422 187.483 8.625 187.577 8.48438C187.67 8.33594 187.752 8.19531 187.823 8.0625C187.901 7.92969 187.952 7.82422 187.975 7.74609C187.998 7.66016 188.01 7.57812 188.01 7.5C188.01 7.14062 187.862 6.91016 187.565 6.80859C187.268 6.70703 186.745 6.65625 185.995 6.65625C184.776 6.65625 183.557 6.81641 182.338 7.13672L182.163 6.32812C182.358 6.24219 182.85 6.13281 183.639 6C184.436 5.85938 185.202 5.78906 185.936 5.78906C186.381 5.78906 186.768 5.81641 187.096 5.87109C187.424 5.91797 187.721 6.00391 187.987 6.12891C188.26 6.24609 188.467 6.42188 188.608 6.65625C188.748 6.88281 188.819 7.16406 188.819 7.5C188.819 7.83594 188.647 8.26562 188.303 8.78906C187.959 9.3125 187.077 10.5234 185.655 12.4219C184.498 13.9609 183.53 15.2578 182.748 16.3125ZM184.659 16.3125H183.674C186.588 12.3906 188.205 10.1992 188.526 9.73828C189.182 8.80078 189.549 8.13281 189.627 7.73438C189.651 7.625 189.663 7.50781 189.663 7.38281C189.663 5.76562 188.436 4.95703 185.983 4.95703C185.233 4.95703 184.471 5.02344 183.698 5.15625C182.924 5.28906 182.358 5.42188 181.998 5.55469L181.834 4.74609C183.17 4.33203 184.557 4.125 185.995 4.125C186.495 4.125 186.955 4.16016 187.377 4.23047C187.807 4.29297 188.217 4.40234 188.608 4.55859C188.998 4.71484 189.33 4.91797 189.604 5.16797C189.877 5.41016 190.092 5.71875 190.248 6.09375C190.413 6.46875 190.495 6.89844 190.495 7.38281C190.495 7.88281 190.248 8.51172 189.756 9.26953C189.264 10.0273 187.791 12.0664 185.338 15.3867C185.041 15.7852 184.815 16.0938 184.659 16.3125ZM186.616 16.3125H185.631C188.295 12.6719 189.913 10.4062 190.483 9.51562C191.053 8.61719 191.338 7.86719 191.338 7.26562C191.338 6.53125 191.194 5.89844 190.905 5.36719C190.623 4.83594 190.225 4.42188 189.709 4.125C189.202 3.82812 188.639 3.61328 188.022 3.48047C187.413 3.34766 186.733 3.28125 185.983 3.28125C184.538 3.28125 183.096 3.5 181.659 3.9375L181.483 3.08203C183.022 2.62891 184.51 2.40234 185.948 2.40234C186.651 2.40234 187.303 2.45312 187.905 2.55469C188.506 2.65625 189.073 2.82812 189.604 3.07031C190.143 3.30469 190.596 3.60547 190.963 3.97266C191.338 4.33984 191.635 4.80469 191.854 5.36719C192.073 5.92188 192.182 6.55469 192.182 7.26562C192.182 7.77344 192.061 8.29297 191.819 8.82422C191.584 9.34766 191.092 10.1484 190.342 11.2266C189.6 12.3047 188.358 14 186.616 16.3125ZM188.643 16.3125H187.659C189.307 14.1328 190.498 12.4961 191.233 11.4023C191.975 10.3008 192.459 9.46875 192.686 8.90625C192.913 8.33594 193.026 7.75 193.026 7.14844C193.026 6.38281 192.909 5.69141 192.674 5.07422C192.448 4.44922 192.123 3.92578 191.702 3.50391C191.288 3.07422 190.788 2.71484 190.202 2.42578C189.616 2.13672 188.971 1.92578 188.268 1.79297C187.573 1.66016 186.819 1.59375 186.006 1.59375C184.506 1.59375 182.944 1.82812 181.319 2.29688L181.143 1.46484C182.791 0.988281 184.405 0.75 185.983 0.75C187.155 0.75 188.213 0.878906 189.159 1.13672C190.112 1.38672 190.94 1.76563 191.643 2.27344C192.354 2.78125 192.901 3.44922 193.284 4.27734C193.674 5.10547 193.87 6.0625 193.87 7.14844C193.87 7.83594 193.756 8.48438 193.53 9.09375C193.311 9.70312 192.827 10.5664 192.077 11.6836C191.334 12.8008 190.19 14.3438 188.643 16.3125Z" fill="url(#paint0_linear_357_2022)"/>
<defs>
<linearGradient id="paint0_linear_357_2022" x1="-13.9102" y1="12.6667" x2="206.737" y2="12.6667" gradientUnits="userSpaceOnUse">
<stop stop-color="#FC1A0A"/>
<stop offset="0.177083" stop-color="#F67714"/>
<stop offset="0.390625" stop-color="#FCDD12"/>
<stop offset="0.59375" stop-color="#02B34D"/>
<stop offset="0.791667" stop-color="#0095D7"/>
<stop offset="1" stop-color="#9522D5"/>
</linearGradient>
</defs>
</svg>
