<svg width="36" height="18" viewBox="0 0 36 18" fill="none" xmlns="http://www.w3.org/2000/svg">
<rect width="36" height="18" rx="4" fill="#015850"/>
<path d="M9.364 8.716C9.812 8.796 10.192 9.032 10.504 9.424C10.816 9.816 10.972 10.26 10.972 10.756C10.972 11.18 10.86 11.564 10.636 11.908C10.42 12.244 10.104 12.512 9.688 12.712C9.272 12.904 8.788 13 8.236 13H4.9V4.66H8.08C8.648 4.66 9.136 4.756 9.544 4.948C9.952 5.14 10.26 5.4 10.468 5.728C10.676 6.048 10.78 6.408 10.78 6.808C10.78 7.288 10.652 7.688 10.396 8.008C10.14 8.328 9.796 8.564 9.364 8.716ZM6.268 8.164H7.96C8.408 8.164 8.756 8.064 9.004 7.864C9.26 7.656 9.388 7.36 9.388 6.976C9.388 6.6 9.26 6.308 9.004 6.1C8.756 5.884 8.408 5.776 7.96 5.776H6.268V8.164ZM8.116 11.884C8.58 11.884 8.944 11.772 9.208 11.548C9.472 11.324 9.604 11.012 9.604 10.612C9.604 10.204 9.464 9.88 9.184 9.64C8.904 9.4 8.532 9.28 8.068 9.28H6.268V11.884H8.116ZM18.6386 9.532C18.6386 9.78 18.6226 10.004 18.5906 10.204H13.5386C13.5786 10.732 13.7746 11.156 14.1266 11.476C14.4786 11.796 14.9106 11.956 15.4226 11.956C16.1586 11.956 16.6786 11.648 16.9826 11.032H18.4586C18.2586 11.64 17.8946 12.14 17.3666 12.532C16.8466 12.916 16.1986 13.108 15.4226 13.108C14.7906 13.108 14.2226 12.968 13.7186 12.688C13.2226 12.4 12.8306 12 12.5426 11.488C12.2626 10.968 12.1226 10.368 12.1226 9.688C12.1226 9.008 12.2586 8.412 12.5306 7.9C12.8106 7.38 13.1986 6.98 13.6946 6.7C14.1986 6.42 14.7746 6.28 15.4226 6.28C16.0466 6.28 16.6026 6.416 17.0906 6.688C17.5786 6.96 17.9586 7.344 18.2306 7.84C18.5026 8.328 18.6386 8.892 18.6386 9.532ZM17.2106 9.1C17.2026 8.596 17.0226 8.192 16.6706 7.888C16.3186 7.584 15.8826 7.432 15.3626 7.432C14.8906 7.432 14.4866 7.584 14.1506 7.888C13.8146 8.184 13.6146 8.588 13.5506 9.1H17.2106ZM21.7008 7.504V11.164C21.7008 11.412 21.7568 11.592 21.8688 11.704C21.9888 11.808 22.1888 11.86 22.4688 11.86H23.3088V13H22.2288C21.6128 13 21.1408 12.856 20.8128 12.568C20.4848 12.28 20.3208 11.812 20.3208 11.164V7.504H19.5408V6.388H20.3208V4.744H21.7008V6.388H23.3088V7.504H21.7008ZM24.2337 9.664C24.2337 9 24.3697 8.412 24.6417 7.9C24.9217 7.388 25.2977 6.992 25.7697 6.712C26.2497 6.424 26.7777 6.28 27.3537 6.28C27.8737 6.28 28.3257 6.384 28.7097 6.592C29.1017 6.792 29.4137 7.044 29.6457 7.348V6.388H31.0257V13H29.6457V12.016C29.4137 12.328 29.0977 12.588 28.6977 12.796C28.2977 13.004 27.8417 13.108 27.3297 13.108C26.7617 13.108 26.2417 12.964 25.7697 12.676C25.2977 12.38 24.9217 11.972 24.6417 11.452C24.3697 10.924 24.2337 10.328 24.2337 9.664ZM29.6457 9.688C29.6457 9.232 29.5497 8.836 29.3577 8.5C29.1737 8.164 28.9297 7.908 28.6257 7.732C28.3217 7.556 27.9937 7.468 27.6417 7.468C27.2897 7.468 26.9617 7.556 26.6577 7.732C26.3537 7.9 26.1057 8.152 25.9137 8.488C25.7297 8.816 25.6377 9.208 25.6377 9.664C25.6377 10.12 25.7297 10.52 25.9137 10.864C26.1057 11.208 26.3537 11.472 26.6577 11.656C26.9697 11.832 27.2977 11.92 27.6417 11.92C27.9937 11.92 28.3217 11.832 28.6257 11.656C28.9297 11.48 29.1737 11.224 29.3577 10.888C29.5497 10.544 29.6457 10.144 29.6457 9.688Z" fill="white"/>
</svg>
