<svg width="40" height="40" viewBox="0 0 40 40" fill="none" xmlns="http://www.w3.org/2000/svg">
<circle cx="20" cy="20" r="20" fill="#015850"/>
<path fill-rule="evenodd" clip-rule="evenodd" d="M17.8634 25.9999C17.5874 25.9999 17.3234 25.8859 17.1344 25.6849L12.2714 20.5059C11.8924 20.1039 11.9134 19.4709 12.3154 19.0929C12.7184 18.7149 13.3514 18.7349 13.7284 19.1369L17.8534 23.5279L26.2614 14.3259C26.6354 13.9169 27.2674 13.8899 27.6754 14.2619C28.0824 14.6339 28.1104 15.2669 27.7384 15.6739L18.6014 25.6739C18.4144 25.8799 18.1484 25.9979 17.8704 25.9999H17.8634Z" fill="white"/>
<mask id="mask0_59_2956" style="mask-type:alpha" maskUnits="userSpaceOnUse" x="12" y="14" width="16" height="12">
<path fill-rule="evenodd" clip-rule="evenodd" d="M17.8634 25.9999C17.5874 25.9999 17.3234 25.8859 17.1344 25.6849L12.2714 20.5059C11.8924 20.1039 11.9134 19.4709 12.3154 19.0929C12.7184 18.7149 13.3514 18.7349 13.7284 19.1369L17.8534 23.5279L26.2614 14.3259C26.6354 13.9169 27.2674 13.8899 27.6754 14.2619C28.0824 14.6339 28.1104 15.2669 27.7384 15.6739L18.6014 25.6739C18.4144 25.8799 18.1484 25.9979 17.8704 25.9999H17.8634Z" fill="white"/>
</mask>
<g mask="url(#mask0_59_2956)">
<rect x="8" y="8" width="24" height="24" fill="white"/>
</g>
</svg>
