<svg width="40" height="40" viewBox="0 0 40 40" fill="none" xmlns="http://www.w3.org/2000/svg">
<circle cx="20" cy="20" r="19.5" fill="white" stroke="#808080"/>
<path d="M16.178 17.216C16.242 16.224 16.6207 15.4507 17.314 14.896C18.018 14.3413 18.914 14.064 20.002 14.064C20.7487 14.064 21.394 14.1973 21.938 14.464C22.482 14.7307 22.8927 15.0933 23.17 15.552C23.4473 16.0107 23.586 16.528 23.586 17.104C23.586 17.7653 23.41 18.3307 23.058 18.8C22.706 19.2693 22.2847 19.584 21.794 19.744V19.808C22.4233 20 22.914 20.352 23.266 20.864C23.618 21.3653 23.794 22.0107 23.794 22.8C23.794 23.4293 23.65 23.9893 23.362 24.48C23.074 24.9707 22.6473 25.36 22.082 25.648C21.5167 25.9253 20.8393 26.064 20.05 26.064C18.898 26.064 17.9487 25.7707 17.202 25.184C16.466 24.5867 16.0713 23.7333 16.018 22.624H17.778C17.8207 23.1893 18.0393 23.6533 18.434 24.016C18.8287 24.368 19.362 24.544 20.034 24.544C20.6847 24.544 21.186 24.368 21.538 24.016C21.89 23.6533 22.066 23.1893 22.066 22.624C22.066 21.8773 21.826 21.3493 21.346 21.04C20.8767 20.72 20.1513 20.56 19.17 20.56H18.754V19.056H19.186C20.05 19.0453 20.706 18.9013 21.154 18.624C21.6127 18.3467 21.842 17.9093 21.842 17.312C21.842 16.8 21.6767 16.3947 21.346 16.096C21.0153 15.7867 20.546 15.632 19.938 15.632C19.3407 15.632 18.8767 15.7867 18.546 16.096C18.2153 16.3947 18.018 16.768 17.954 17.216H16.178Z" fill="#333333"/>
</svg>
