<svg width="40" height="40" viewBox="0 0 40 40" fill="none" xmlns="http://www.w3.org/2000/svg">
<circle cx="20" cy="20" r="20" fill="#015850"/>
<path d="M17.3508 23.52C18.3748 22.6347 19.1801 21.9093 19.7668 21.344C20.3641 20.768 20.8601 20.1707 21.2548 19.552C21.6495 18.9333 21.8468 18.3147 21.8468 17.696C21.8468 17.056 21.6921 16.5547 21.3828 16.192C21.0841 15.8293 20.6095 15.648 19.9588 15.648C19.3295 15.648 18.8388 15.8507 18.4868 16.256C18.1455 16.6507 17.9641 17.184 17.9428 17.856H16.1828C16.2148 16.64 16.5775 15.712 17.2708 15.072C17.9748 14.4213 18.8655 14.096 19.9428 14.096C21.1055 14.096 22.0121 14.416 22.6628 15.056C23.3241 15.696 23.6548 16.5493 23.6548 17.616C23.6548 18.384 23.4575 19.1253 23.0628 19.84C22.6788 20.544 22.2148 21.1787 21.6708 21.744C21.1375 22.2987 20.4548 22.944 19.6228 23.68L18.9028 24.32H23.9748V25.84H16.1988V24.512L17.3508 23.52Z" fill="white"/>
</svg>
