<svg width="24" height="24" viewBox="0 0 24 24" fill="none" xmlns="http://www.w3.org/2000/svg">
<path fill-rule="evenodd" clip-rule="evenodd" d="M12.0003 7.00033C9.24333 7.00033 7.00033 9.24333 7.00033 12.0003C7.00033 14.7573 9.24333 17.0003 12.0003 17.0003C14.7573 17.0003 17.0003 14.7573 17.0003 12.0003C17.0003 9.24333 14.7573 7.00033 12.0003 7.00033ZM12.0003 20.0003C7.58933 20.0003 4.00033 16.4113 4.00033 12.0003C4.00033 7.58933 7.58933 4.00033 12.0003 4.00033C16.4113 4.00033 20.0003 7.58933 20.0003 12.0003C20.0003 16.4113 16.4113 20.0003 12.0003 20.0003ZM12 2C6.486 2 2 6.486 2 12C2 17.514 6.486 22 12 22C17.514 22 22 17.514 22 12C22 6.486 17.514 2 12 2Z" fill="#015850"/>
<mask id="mask0_59_2846" style="mask-type:alpha" maskUnits="userSpaceOnUse" x="2" y="2" width="20" height="20">
<path fill-rule="evenodd" clip-rule="evenodd" d="M12.0003 7.00033C9.24333 7.00033 7.00033 9.24333 7.00033 12.0003C7.00033 14.7573 9.24333 17.0003 12.0003 17.0003C14.7573 17.0003 17.0003 14.7573 17.0003 12.0003C17.0003 9.24333 14.7573 7.00033 12.0003 7.00033ZM12.0003 20.0003C7.58933 20.0003 4.00033 16.4113 4.00033 12.0003C4.00033 7.58933 7.58933 4.00033 12.0003 4.00033C16.4113 4.00033 20.0003 7.58933 20.0003 12.0003C20.0003 16.4113 16.4113 20.0003 12.0003 20.0003ZM12 2C6.486 2 2 6.486 2 12C2 17.514 6.486 22 12 22C17.514 22 22 17.514 22 12C22 6.486 17.514 2 12 2Z" fill="white"/>
</mask>
<g mask="url(#mask0_59_2846)">
<rect width="24" height="24" fill="#015850"/>
</g>
</svg>
