<svg width="20" height="16" viewBox="0 0 20 16" fill="none" xmlns="http://www.w3.org/2000/svg">
<path d="M0.833984 0.499674C0.373747 0.499674 0.000650942 0.87277 0.000650942 1.33301C0.000650942 1.79325 0.373747 2.16634 0.833984 2.16634V0.499674ZM12.5007 1.33301H13.334C13.334 0.87277 12.9609 0.499674 12.5007 0.499674V1.33301ZM12.5007 4.66634V3.83301C12.2796 3.83301 12.0677 3.92081 11.9114 4.07709C11.7551 4.23337 11.6673 4.44533 11.6673 4.66634H12.5007ZM1.66732 11.333C1.66732 10.8728 1.29422 10.4997 0.833984 10.4997C0.373747 10.4997 0.000650942 10.8728 0.000650942 11.333H1.66732ZM0.833984 2.16634H12.5007V0.499674H0.833984V2.16634ZM11.6673 1.33301V12.9997H13.334V1.33301H11.6673ZM12.5007 5.49967H15.834V3.83301H12.5007V5.49967ZM18.334 7.99967V11.333H20.0007V7.99967H18.334ZM13.334 12.9997L13.334 4.66634H11.6673L11.6673 12.9997H13.334ZM16.4232 13.5889C16.0978 13.9144 15.5702 13.9144 15.2447 13.5889L14.0662 14.7674C15.0425 15.7438 16.6254 15.7438 17.6018 14.7674L16.4232 13.5889ZM15.2447 12.4104C15.5702 12.085 16.0978 12.085 16.4232 12.4104L17.6018 11.2319C16.6254 10.2556 15.0425 10.2556 14.0662 11.2319L15.2447 12.4104ZM5.58991 13.5889C5.26447 13.9144 4.73683 13.9144 4.4114 13.5889L3.23288 14.7674C4.20919 15.7438 5.79211 15.7438 6.76842 14.7674L5.58991 13.5889ZM4.4114 12.4104C4.73683 12.085 5.26447 12.085 5.58991 12.4104L6.76842 11.2319C5.79211 10.2556 4.20919 10.2556 3.23288 11.2319L4.4114 12.4104ZM16.4232 12.4104C16.5861 12.5733 16.6673 12.7851 16.6673 12.9997H18.334C18.334 12.3612 18.0897 11.7199 17.6018 11.2319L16.4232 12.4104ZM16.6673 12.9997C16.6673 13.2142 16.5861 13.426 16.4232 13.5889L17.6018 14.7674C18.0897 14.2795 18.334 13.6382 18.334 12.9997H16.6673ZM14.1673 12.1663H12.5007V13.833H14.1673V12.1663ZM15.2447 13.5889C15.0818 13.426 15.0007 13.2142 15.0007 12.9997H13.334C13.334 13.6382 13.5782 14.2795 14.0662 14.7674L15.2447 13.5889ZM15.0007 12.9997C15.0007 12.7851 15.0818 12.5733 15.2447 12.4104L14.0662 11.2319C13.5782 11.7199 13.334 12.3612 13.334 12.9997H15.0007ZM4.4114 13.5889C4.24851 13.4261 4.16732 13.2142 4.16732 12.9997H2.50065C2.50065 13.6382 2.74489 14.2795 3.23288 14.7674L4.4114 13.5889ZM4.16732 12.9997C4.16732 12.7851 4.24851 12.5733 4.4114 12.4104L3.23288 11.2319C2.74489 11.7199 2.50065 12.3612 2.50065 12.9997H4.16732ZM3.33398 12.1663H2.47565V13.833H3.33398V12.1663ZM12.5007 12.1663H6.66732V13.833H12.5007V12.1663ZM5.58991 12.4104C5.75279 12.5733 5.83398 12.7851 5.83398 12.9997H7.50065C7.50065 12.3612 7.25641 11.7199 6.76842 11.2319L5.58991 12.4104ZM5.83398 12.9997C5.83398 13.2142 5.75279 13.4261 5.58991 13.5889L6.76842 14.7674C7.25641 14.2795 7.50065 13.6382 7.50065 12.9997H5.83398ZM1.66732 11.358V11.333H0.000650942V11.358H1.66732ZM18.334 11.333C18.334 11.7932 17.9609 12.1663 17.5007 12.1663V13.833C18.8814 13.833 20.0007 12.7137 20.0007 11.333H18.334ZM15.834 5.49967C17.2147 5.49967 18.334 6.61896 18.334 7.99967H20.0007C20.0007 5.69849 18.1352 3.83301 15.834 3.83301V5.49967ZM2.47565 12.1663C2.02922 12.1663 1.66732 11.8044 1.66732 11.358H0.000650942C0.000650942 12.7249 1.10875 13.833 2.47565 13.833V12.1663Z" fill="#F2994A"/>
</svg>
