<svg width="32" height="32" viewBox="0 0 32 32" fill="none" xmlns="http://www.w3.org/2000/svg">
<rect width="32" height="32" rx="16" fill="white"/>
<path d="M18.4301 22.8201C18.2401 22.8201 18.0501 22.7501 17.9001 22.6001C17.6101 22.3101 17.6101 21.8301 17.9001 21.5401L23.4401 16.0001L17.9001 10.4601C17.6101 10.1701 17.6101 9.69012 17.9001 9.40012C18.1901 9.11012 18.6701 9.11012 18.9601 9.40012L25.0301 15.4701C25.3201 15.7601 25.3201 16.2401 25.0301 16.5301L18.9601 22.6001C18.8101 22.7501 18.6201 22.8201 18.4301 22.8201Z" fill="#292D32"/>
<path d="M24.33 16.75H7.5C7.09 16.75 6.75 16.41 6.75 16C6.75 15.59 7.09 15.25 7.5 15.25H24.33C24.74 15.25 25.08 15.59 25.08 16C25.08 16.41 24.74 16.75 24.33 16.75Z" fill="#292D32"/>
</svg>
