<svg width="41" height="40" viewBox="0 0 41 40" fill="none" xmlns="http://www.w3.org/2000/svg">
<rect x="0.5" width="40" height="40" rx="20" fill="#015850"/>
<path d="M21.4995 22.7495H20.4995C20.0895 22.7495 19.7495 22.4095 19.7495 21.9995C19.7495 21.5895 20.0895 21.2495 20.4995 21.2495H21.4995C22.1895 21.2495 22.7495 20.6895 22.7495 19.9995V10.7495H14.4995C13.3195 10.7495 12.2395 11.3895 11.6595 12.4195C11.4595 12.7795 10.9995 12.9095 10.6395 12.7095C10.2795 12.5095 10.1495 12.0495 10.3495 11.6895C11.1895 10.1895 12.7795 9.24951 14.4995 9.24951H23.4995C23.9095 9.24951 24.2495 9.58951 24.2495 9.99951V19.9995C24.2495 21.5195 23.0195 22.7495 21.4995 22.7495Z" fill="white"/>
<path d="M27.5002 28.7495H26.5002C26.0902 28.7495 25.7502 28.4095 25.7502 27.9995C25.7502 27.3095 25.1902 26.7495 24.5002 26.7495C23.8102 26.7495 23.2502 27.3095 23.2502 27.9995C23.2502 28.4095 22.9102 28.7495 22.5002 28.7495H18.5002C18.0902 28.7495 17.7502 28.4095 17.7502 27.9995C17.7502 27.3095 17.1902 26.7495 16.5002 26.7495C15.8102 26.7495 15.2502 27.3095 15.2502 27.9995C15.2502 28.4095 14.9102 28.7495 14.5002 28.7495H13.5002C11.4302 28.7495 9.75024 27.0695 9.75024 24.9995C9.75024 24.5895 10.0902 24.2495 10.5002 24.2495C10.9102 24.2495 11.2502 24.5895 11.2502 24.9995C11.2502 26.2395 12.2602 27.2495 13.5002 27.2495H13.8502C14.1802 26.0995 15.2402 25.2495 16.5002 25.2495C17.7602 25.2495 18.8203 26.0995 19.1503 27.2495H21.8602C22.1902 26.0995 23.2503 25.2495 24.5103 25.2495C25.7703 25.2495 26.8302 26.0995 27.1602 27.2495H27.5002C28.7402 27.2495 29.7502 26.2395 29.7502 24.9995V22.7495H27.5002C26.5402 22.7495 25.7502 21.9595 25.7502 20.9995V17.9995C25.7502 17.0395 26.5302 16.2495 27.5002 16.2495L26.4302 14.3795C26.2102 13.9895 25.7903 13.7495 25.3403 13.7495H24.2502V19.9995C24.2502 21.5195 23.0202 22.7495 21.5002 22.7495H20.5002C20.0902 22.7495 19.7502 22.4095 19.7502 21.9995C19.7502 21.5895 20.0902 21.2495 20.5002 21.2495H21.5002C22.1902 21.2495 22.7502 20.6895 22.7502 19.9995V12.9995C22.7502 12.5895 23.0902 12.2495 23.5002 12.2495H25.3403C26.3303 12.2495 27.2402 12.7795 27.7302 13.6395L29.4402 16.6295C29.5702 16.8595 29.5702 17.1495 29.4402 17.3795C29.3102 17.6095 29.0602 17.7495 28.7902 17.7495H27.5002C27.3602 17.7495 27.2502 17.8595 27.2502 17.9995V20.9995C27.2502 21.1395 27.3602 21.2495 27.5002 21.2495H30.5002C30.9102 21.2495 31.2502 21.5895 31.2502 21.9995V24.9995C31.2502 27.0695 29.5702 28.7495 27.5002 28.7495Z" fill="white"/>
<path d="M16.5 30.75C14.98 30.75 13.75 29.52 13.75 28C13.75 26.48 14.98 25.25 16.5 25.25C18.02 25.25 19.25 26.48 19.25 28C19.25 29.52 18.02 30.75 16.5 30.75ZM16.5 26.75C15.81 26.75 15.25 27.31 15.25 28C15.25 28.69 15.81 29.25 16.5 29.25C17.19 29.25 17.75 28.69 17.75 28C17.75 27.31 17.19 26.75 16.5 26.75Z" fill="white"/>
<path d="M24.5002 30.75C22.9802 30.75 21.7502 29.52 21.7502 28C21.7502 26.48 22.9802 25.25 24.5002 25.25C26.0202 25.25 27.2502 26.48 27.2502 28C27.2502 29.52 26.0202 30.75 24.5002 30.75ZM24.5002 26.75C23.8102 26.75 23.2502 27.31 23.2502 28C23.2502 28.69 23.8102 29.25 24.5002 29.25C25.1902 29.25 25.7502 28.69 25.7502 28C25.7502 27.31 25.1902 26.75 24.5002 26.75Z" fill="white"/>
<path d="M30.5 22.75H27.5C26.54 22.75 25.75 21.96 25.75 21V18C25.75 17.04 26.54 16.25 27.5 16.25H28.79C29.06 16.25 29.31 16.39 29.44 16.63L31.15 19.63C31.21 19.74 31.25 19.87 31.25 20V22C31.25 22.41 30.91 22.75 30.5 22.75ZM27.5 17.75C27.36 17.75 27.25 17.86 27.25 18V21C27.25 21.14 27.36 21.25 27.5 21.25H29.75V20.2L28.35 17.75H27.5Z" fill="white"/>
<path d="M16.5002 16.7495H10.5002C10.0902 16.7495 9.75024 16.4095 9.75024 15.9995C9.75024 15.5895 10.0902 15.2495 10.5002 15.2495H16.5002C16.9102 15.2495 17.2502 15.5895 17.2502 15.9995C17.2502 16.4095 16.9102 16.7495 16.5002 16.7495Z" fill="white"/>
<path d="M14.5002 19.7495H10.5002C10.0902 19.7495 9.75024 19.4095 9.75024 18.9995C9.75024 18.5895 10.0902 18.2495 10.5002 18.2495H14.5002C14.9102 18.2495 15.2502 18.5895 15.2502 18.9995C15.2502 19.4095 14.9102 19.7495 14.5002 19.7495Z" fill="white"/>
<path d="M12.5002 22.7495H10.5002C10.0902 22.7495 9.75024 22.4095 9.75024 21.9995C9.75024 21.5895 10.0902 21.2495 10.5002 21.2495H12.5002C12.9102 21.2495 13.2502 21.5895 13.2502 21.9995C13.2502 22.4095 12.9102 22.7495 12.5002 22.7495Z" fill="white"/>
</svg>
