<svg width="32" height="32" viewBox="0 0 32 32" fill="none" xmlns="http://www.w3.org/2000/svg">
<rect x="32" y="32" width="32" height="32" rx="16" transform="rotate(-180 32 32)" fill="white"/>
<path d="M13.57 9.17988C13.76 9.17988 13.95 9.24988 14.1 9.39988C14.39 9.68988 14.39 10.1699 14.1 10.4599L8.56 15.9999L14.1 21.5399C14.39 21.8299 14.39 22.3099 14.1 22.5999C13.81 22.8899 13.33 22.8899 13.04 22.5999L6.97 16.5299C6.68 16.2399 6.68 15.7599 6.97 15.4699L13.04 9.39988C13.19 9.24988 13.38 9.17988 13.57 9.17988Z" fill="#292D32"/>
<path d="M7.67 15.25L24.5 15.25C24.91 15.25 25.25 15.59 25.25 16C25.25 16.41 24.91 16.75 24.5 16.75L7.67 16.75C7.26 16.75 6.92 16.41 6.92 16C6.92 15.59 7.26 15.25 7.67 15.25Z" fill="#292D32"/>
</svg>
