<svg width="16" height="16" viewBox="0 0 16 16" fill="none" xmlns="http://www.w3.org/2000/svg">
<path fill-rule="evenodd" clip-rule="evenodd" d="M12.6667 8.66659H3.33341C2.96541 8.66659 2.66675 8.36859 2.66675 7.99992C2.66675 7.63125 2.96541 7.33325 3.33341 7.33325H12.6667C13.0354 7.33325 13.3334 7.63125 13.3334 7.99992C13.3334 8.36859 13.0354 8.66659 12.6667 8.66659" fill="#666666"/>
<mask id="mask0_127_1789" style="mask-type:alpha" maskUnits="userSpaceOnUse" x="2" y="7" width="12" height="2">
<path fill-rule="evenodd" clip-rule="evenodd" d="M12.6667 8.66659H3.33341C2.96541 8.66659 2.66675 8.36859 2.66675 7.99992C2.66675 7.63125 2.96541 7.33325 3.33341 7.33325H12.6667C13.0354 7.33325 13.3334 7.63125 13.3334 7.99992C13.3334 8.36859 13.0354 8.66659 12.6667 8.66659" fill="white"/>
</mask>
<g mask="url(#mask0_127_1789)">
<rect width="16" height="16" fill="#666666"/>
</g>
</svg>
